{
    "asset" : {
        "generator" : "Khronos glTF Blender I/O v1.7.33",
        "version" : "2.0"
    },
    "scene" : 0,
    "scenes" : [
        {
            "name" : "Scene",
            "nodes" : [
                8
            ]
        }
    ],
    "nodes" : [
        {
            "mesh" : 0,
            "name" : "eye.001"
        },
        {
            "mesh" : 1,
            "name" : "Plane"
        },
        {
            "mesh" : 2,
            "name" : "Plane.001"
        },
        {
            "mesh" : 3,
            "name" : "Plane.002"
        },
        {
            "mesh" : 4,
            "name" : "Plane.003"
        },
        {
            "mesh" : 5,
            "name" : "Plane.004"
        },
        {
            "mesh" : 6,
            "name" : "Vert.004"
        },
        {
            "mesh" : 7,
            "name" : "Vert.005"
        },
        {
            "children" : [
                0,
                1,
                2,
                3,
                4,
                5,
                6,
                7
            ],
            "mesh" : 8,
            "name" : "Cube"
        }
    ],
    "materials" : [
        {
            "doubleSided" : true,
            "name" : "eyeBlack",
            "pbrMetallicRoughness" : {
                "baseColorFactor" : [
                    0,
                    0,
                    0,
                    1
                ],
                "metallicFactor" : 0,
                "roughnessFactor" : 0.5
            }
        },
        {
            "doubleSided" : true,
            "name" : "eyeWhite",
            "pbrMetallicRoughness" : {
                "baseColorFactor" : [
                    0.800000011920929,
                    0.800000011920929,
                    0.800000011920929,
                    1
                ],
                "metallicFactor" : 0,
                "roughnessFactor" : 0.5
            }
        },
        {
            "doubleSided" : true,
            "name" : "greyFin",
            "pbrMetallicRoughness" : {
                "baseColorFactor" : [
                    0.05126947909593582,
                    0.051269471645355225,
                    0.051269467920064926,
                    1
                ],
                "metallicFactor" : 0,
                "roughnessFactor" : 0.5
            }
        },
        {
            "doubleSided" : true,
            "name" : "fin1",
            "pbrMetallicRoughness" : {
                "baseColorTexture" : {
                    "index" : 0
                },
                "metallicFactor" : 0,
                "roughnessFactor" : 0.5
            }
        },
        {
            "doubleSided" : true,
            "name" : "whisker",
            "pbrMetallicRoughness" : {
                "metallicFactor" : 0,
                "roughnessFactor" : 0.5
            }
        },
        {
            "doubleSided" : true,
            "name" : "catfishBody",
            "pbrMetallicRoughness" : {
                "baseColorTexture" : {
                    "index" : 1
                },
                "metallicFactor" : 0,
                "roughnessFactor" : 0.5
            }
        }
    ],
    "meshes" : [
        {
            "name" : "Cube.014",
            "primitives" : [
                {
                    "attributes" : {
                        "POSITION" : 0,
                        "NORMAL" : 1,
                        "TEXCOORD_0" : 2
                    },
                    "indices" : 3,
                    "material" : 0
                },
                {
                    "attributes" : {
                        "POSITION" : 4,
                        "NORMAL" : 5,
                        "TEXCOORD_0" : 6
                    },
                    "indices" : 7,
                    "material" : 1
                }
            ]
        },
        {
            "name" : "Plane",
            "primitives" : [
                {
                    "attributes" : {
                        "POSITION" : 8,
                        "NORMAL" : 9,
                        "TEXCOORD_0" : 10
                    },
                    "indices" : 11,
                    "material" : 2
                }
            ]
        },
        {
            "name" : "Plane.001",
            "primitives" : [
                {
                    "attributes" : {
                        "POSITION" : 12,
                        "NORMAL" : 13,
                        "TEXCOORD_0" : 14
                    },
                    "indices" : 15,
                    "material" : 3
                }
            ]
        },
        {
            "name" : "Plane.002",
            "primitives" : [
                {
                    "attributes" : {
                        "POSITION" : 16,
                        "NORMAL" : 17,
                        "TEXCOORD_0" : 18
                    },
                    "indices" : 19,
                    "material" : 2
                }
            ]
        },
        {
            "name" : "Plane.003",
            "primitives" : [
                {
                    "attributes" : {
                        "POSITION" : 20,
                        "NORMAL" : 21,
                        "TEXCOORD_0" : 22
                    },
                    "indices" : 19,
                    "material" : 2
                }
            ]
        },
        {
            "name" : "Plane.004",
            "primitives" : [
                {
                    "attributes" : {
                        "POSITION" : 23,
                        "NORMAL" : 24,
                        "TEXCOORD_0" : 25
                    },
                    "indices" : 26,
                    "material" : 2
                }
            ]
        },
        {
            "name" : "Vert.010",
            "primitives" : [
                {
                    "attributes" : {
                        "POSITION" : 27,
                        "NORMAL" : 28,
                        "TEXCOORD_0" : 29
                    },
                    "indices" : 30,
                    "material" : 4
                }
            ]
        },
        {
            "name" : "Vert.011",
            "primitives" : [
                {
                    "attributes" : {
                        "POSITION" : 31,
                        "NORMAL" : 32,
                        "TEXCOORD_0" : 33
                    },
                    "indices" : 34,
                    "material" : 4
                }
            ]
        },
        {
            "name" : "Cube",
            "primitives" : [
                {
                    "attributes" : {
                        "POSITION" : 35,
                        "NORMAL" : 36,
                        "TEXCOORD_0" : 37
                    },
                    "indices" : 38,
                    "material" : 5
                }
            ]
        }
    ],
    "textures" : [
        {
            "sampler" : 0,
            "source" : 0
        },
        {
            "sampler" : 0,
            "source" : 1
        }
    ],
    "images" : [
        {
            "bufferView" : 16,
            "mimeType" : "image/png",
            "name" : "fin1"
        },
        {
            "bufferView" : 40,
            "mimeType" : "image/png",
            "name" : "redTailBody"
        }
    ],
    "accessors" : [
        {
            "bufferView" : 0,
            "componentType" : 5126,
            "count" : 530,
            "max" : [
                2.0556552410125732,
                0.47590261697769165,
                0.8892422318458557
            ],
            "min" : [
                1.8447133302688599,
                0.2782162129878998,
                -0.8892421126365662
            ],
            "type" : "VEC3"
        },
        {
            "bufferView" : 1,
            "componentType" : 5126,
            "count" : 530,
            "type" : "VEC3"
        },
        {
            "bufferView" : 2,
            "componentType" : 5126,
            "count" : 530,
            "type" : "VEC2"
        },
        {
            "bufferView" : 3,
            "componentType" : 5123,
            "count" : 2160,
            "type" : "SCALAR"
        },
        {
            "bufferView" : 4,
            "componentType" : 5126,
            "count" : 512,
            "max" : [
                2.087974786758423,
                0.4966261386871338,
                0.8980761170387268
            ],
            "min" : [
                1.7875620126724243,
                0.2121599018573761,
                -0.8980758786201477
            ],
            "type" : "VEC3"
        },
        {
            "bufferView" : 5,
            "componentType" : 5126,
            "count" : 512,
            "type" : "VEC3"
        },
        {
            "bufferView" : 6,
            "componentType" : 5126,
            "count" : 512,
            "type" : "VEC2"
        },
        {
            "bufferView" : 7,
            "componentType" : 5123,
            "count" : 2304,
            "type" : "SCALAR"
        },
        {
            "bufferView" : 8,
            "componentType" : 5126,
            "count" : 72,
            "max" : [
                1.298936367034912,
                0.03269452601671219,
                2.226994037628174
            ],
            "min" : [
                -0.18379998207092285,
                -0.07493758201599121,
                -2.226994037628174
            ],
            "type" : "VEC3"
        },
        {
            "bufferView" : 9,
            "componentType" : 5126,
            "count" : 72,
            "type" : "VEC3"
        },
        {
            "bufferView" : 10,
            "componentType" : 5126,
            "count" : 72,
            "type" : "VEC2"
        },
        {
            "bufferView" : 11,
            "componentType" : 5123,
            "count" : 408,
            "type" : "SCALAR"
        },
        {
            "bufferView" : 12,
            "componentType" : 5126,
            "count" : 202,
            "max" : [
                0.8030890822410583,
                1.7836061716079712,
                0.03701237216591835
            ],
            "min" : [
                -1.679029107093811,
                0.5110679864883423,
                -0.03701236844062805
            ],
            "type" : "VEC3"
        },
        {
            "bufferView" : 13,
            "componentType" : 5126,
            "count" : 202,
            "type" : "VEC3"
        },
        {
            "bufferView" : 14,
            "componentType" : 5126,
            "count" : 202,
            "type" : "VEC2"
        },
        {
            "bufferView" : 15,
            "componentType" : 5123,
            "count" : 960,
            "type" : "SCALAR"
        },
        {
            "bufferView" : 17,
            "componentType" : 5126,
            "count" : 195,
            "max" : [
                -3.1232669353485107,
                0.8175485730171204,
                0.05726398527622223
            ],
            "min" : [
                -3.985828161239624,
                0.31348130106925964,
                -0.05726398900151253
            ],
            "type" : "VEC3"
        },
        {
            "bufferView" : 18,
            "componentType" : 5126,
            "count" : 195,
            "type" : "VEC3"
        },
        {
            "bufferView" : 19,
            "componentType" : 5126,
            "count" : 195,
            "type" : "VEC2"
        },
        {
            "bufferView" : 20,
            "componentType" : 5123,
            "count" : 960,
            "type" : "SCALAR"
        },
        {
            "bufferView" : 21,
            "componentType" : 5126,
            "count" : 195,
            "max" : [
                -3.1371963024139404,
                -0.3306454122066498,
                0.057263992726802826
            ],
            "min" : [
                -4.027434825897217,
                -0.8117928504943848,
                -0.057263992726802826
            ],
            "type" : "VEC3"
        },
        {
            "bufferView" : 22,
            "componentType" : 5126,
            "count" : 195,
            "type" : "VEC3"
        },
        {
            "bufferView" : 23,
            "componentType" : 5126,
            "count" : 195,
            "type" : "VEC2"
        },
        {
            "bufferView" : 24,
            "componentType" : 5126,
            "count" : 390,
            "max" : [
                -0.7171661257743835,
                -0.6931626796722412,
                0.85968416929245
            ],
            "min" : [
                -1.6074045896530151,
                -0.9349892735481262,
                -0.85968416929245
            ],
            "type" : "VEC3"
        },
        {
            "bufferView" : 25,
            "componentType" : 5126,
            "count" : 390,
            "type" : "VEC3"
        },
        {
            "bufferView" : 26,
            "componentType" : 5126,
            "count" : 390,
            "type" : "VEC2"
        },
        {
            "bufferView" : 27,
            "componentType" : 5123,
            "count" : 1920,
            "type" : "SCALAR"
        },
        {
            "bufferView" : 28,
            "componentType" : 5126,
            "count" : 438,
            "max" : [
                2.933518409729004,
                0.8466031551361084,
                2.1032886505126953
            ],
            "min" : [
                0.93552565574646,
                0.2246595323085785,
                -2.0822856426239014
            ],
            "type" : "VEC3"
        },
        {
            "bufferView" : 29,
            "componentType" : 5126,
            "count" : 438,
            "type" : "VEC3"
        },
        {
            "bufferView" : 30,
            "componentType" : 5126,
            "count" : 438,
            "type" : "VEC2"
        },
        {
            "bufferView" : 31,
            "componentType" : 5123,
            "count" : 1920,
            "type" : "SCALAR"
        },
        {
            "bufferView" : 32,
            "componentType" : 5126,
            "count" : 272,
            "max" : [
                2.7788562774658203,
                -0.02377406880259514,
                1.1335090398788452
            ],
            "min" : [
                1.8333032131195068,
                -0.3406731188297272,
                -1.1191880702972412
            ],
            "type" : "VEC3"
        },
        {
            "bufferView" : 33,
            "componentType" : 5126,
            "count" : 272,
            "type" : "VEC3"
        },
        {
            "bufferView" : 34,
            "componentType" : 5126,
            "count" : 272,
            "type" : "VEC2"
        },
        {
            "bufferView" : 35,
            "componentType" : 5123,
            "count" : 1152,
            "type" : "SCALAR"
        },
        {
            "bufferView" : 36,
            "componentType" : 5126,
            "count" : 882,
            "max" : [
                2.667898654937744,
                1.5419868230819702,
                1.1418230533599854
            ],
            "min" : [
                -6.604405403137207,
                -1.3272331953048706,
                -1.141823172569275
            ],
            "type" : "VEC3"
        },
        {
            "bufferView" : 37,
            "componentType" : 5126,
            "count" : 882,
            "type" : "VEC3"
        },
        {
            "bufferView" : 38,
            "componentType" : 5126,
            "count" : 882,
            "type" : "VEC2"
        },
        {
            "bufferView" : 39,
            "componentType" : 5123,
            "count" : 4236,
            "type" : "SCALAR"
        }
    ],
    "bufferViews" : [
        {
            "buffer" : 0,
            "byteLength" : 6360,
            "byteOffset" : 0
        },
        {
            "buffer" : 0,
            "byteLength" : 6360,
            "byteOffset" : 6360
        },
        {
            "buffer" : 0,
            "byteLength" : 4240,
            "byteOffset" : 12720
        },
        {
            "buffer" : 0,
            "byteLength" : 4320,
            "byteOffset" : 16960
        },
        {
            "buffer" : 0,
            "byteLength" : 6144,
            "byteOffset" : 21280
        },
        {
            "buffer" : 0,
            "byteLength" : 6144,
            "byteOffset" : 27424
        },
        {
            "buffer" : 0,
            "byteLength" : 4096,
            "byteOffset" : 33568
        },
        {
            "buffer" : 0,
            "byteLength" : 4608,
            "byteOffset" : 37664
        },
        {
            "buffer" : 0,
            "byteLength" : 864,
            "byteOffset" : 42272
        },
        {
            "buffer" : 0,
            "byteLength" : 864,
            "byteOffset" : 43136
        },
        {
            "buffer" : 0,
            "byteLength" : 576,
            "byteOffset" : 44000
        },
        {
            "buffer" : 0,
            "byteLength" : 816,
            "byteOffset" : 44576
        },
        {
            "buffer" : 0,
            "byteLength" : 2424,
            "byteOffset" : 45392
        },
        {
            "buffer" : 0,
            "byteLength" : 2424,
            "byteOffset" : 47816
        },
        {
            "buffer" : 0,
            "byteLength" : 1616,
            "byteOffset" : 50240
        },
        {
            "buffer" : 0,
            "byteLength" : 1920,
            "byteOffset" : 51856
        },
        {
            "buffer" : 0,
            "byteLength" : 126330,
            "byteOffset" : 53776
        },
        {
            "buffer" : 0,
            "byteLength" : 2340,
            "byteOffset" : 180108
        },
        {
            "buffer" : 0,
            "byteLength" : 2340,
            "byteOffset" : 182448
        },
        {
            "buffer" : 0,
            "byteLength" : 1560,
            "byteOffset" : 184788
        },
        {
            "buffer" : 0,
            "byteLength" : 1920,
            "byteOffset" : 186348
        },
        {
            "buffer" : 0,
            "byteLength" : 2340,
            "byteOffset" : 188268
        },
        {
            "buffer" : 0,
            "byteLength" : 2340,
            "byteOffset" : 190608
        },
        {
            "buffer" : 0,
            "byteLength" : 1560,
            "byteOffset" : 192948
        },
        {
            "buffer" : 0,
            "byteLength" : 4680,
            "byteOffset" : 194508
        },
        {
            "buffer" : 0,
            "byteLength" : 4680,
            "byteOffset" : 199188
        },
        {
            "buffer" : 0,
            "byteLength" : 3120,
            "byteOffset" : 203868
        },
        {
            "buffer" : 0,
            "byteLength" : 3840,
            "byteOffset" : 206988
        },
        {
            "buffer" : 0,
            "byteLength" : 5256,
            "byteOffset" : 210828
        },
        {
            "buffer" : 0,
            "byteLength" : 5256,
            "byteOffset" : 216084
        },
        {
            "buffer" : 0,
            "byteLength" : 3504,
            "byteOffset" : 221340
        },
        {
            "buffer" : 0,
            "byteLength" : 3840,
            "byteOffset" : 224844
        },
        {
            "buffer" : 0,
            "byteLength" : 3264,
            "byteOffset" : 228684
        },
        {
            "buffer" : 0,
            "byteLength" : 3264,
            "byteOffset" : 231948
        },
        {
            "buffer" : 0,
            "byteLength" : 2176,
            "byteOffset" : 235212
        },
        {
            "buffer" : 0,
            "byteLength" : 2304,
            "byteOffset" : 237388
        },
        {
            "buffer" : 0,
            "byteLength" : 10584,
            "byteOffset" : 239692
        },
        {
            "buffer" : 0,
            "byteLength" : 10584,
            "byteOffset" : 250276
        },
        {
            "buffer" : 0,
            "byteLength" : 7056,
            "byteOffset" : 260860
        },
        {
            "buffer" : 0,
            "byteLength" : 8472,
            "byteOffset" : 267916
        },
        {
            "buffer" : 0,
            "byteLength" : 208851,
            "byteOffset" : 276388
        }
    ],
    "samplers" : [
        {
            "magFilter" : 9729,
            "minFilter" : 9987
        }
    ],
    "buffers" : [
        {
            "byteLength" : 485240,
            "uri" : "data:application/octet-stream;base64,"
        }
    ]
}
