{
    "asset" : {
        "generator" : "Khronos glTF Blender I/O v1.7.33",
        "version" : "2.0"
    },
    "scene" : 0,
    "scenes" : [
        {
            "name" : "Scene",
            "nodes" : [
                8
            ]
        }
    ],
    "nodes" : [
        {
            "name" : "tail2",
            "rotation" : [
                -0.013028044253587723,
                -0.015549692325294018,
                0.2937937080860138,
                0.9556535482406616
            ],
            "scale" : [
                1,
                0.9999999403953552,
                0.9999999403953552
            ],
            "translation" : [
                -7.682425717803198e-08,
                2.206932783126831,
                -0.010726451873779297
            ]
        },
        {
            "children" : [
                0
            ],
            "name" : "tail1",
            "rotation" : [
                0.9757111072540283,
                -0.2181807905435562,
                -0.004283433314412832,
                0.019150037318468094
            ],
            "scale" : [
                1,
                1,
                1.0000004768371582
            ],
            "translation" : [
                -6.416281905785581e-08,
                -0.40125608444213867,
                -0.03515014052391052
            ]
        },
        {
            "name" : "up_jaw",
            "rotation" : [
                0.005272138398140669,
                4.013337218111701e-07,
                -2.1159158869465955e-09,
                0.9999861121177673
            ],
            "scale" : [
                1,
                1,
                0.9999999403953552
            ],
            "translation" : [
                -1.3418753042060416e-07,
                1.9850975275039673,
                -0.1671745777130127
            ]
        },
        {
            "name" : "low_jaw",
            "rotation" : [
                -0.022698452696204185,
                4.012363206129521e-07,
                9.109920817707007e-09,
                0.9997424483299255
            ],
            "translation" : [
                3.8604684959864244e-07,
                1.7861844301223755,
                0.48094820976257324
            ]
        },
        {
            "children" : [
                2,
                3
            ],
            "name" : "head",
            "rotation" : [
                -4.2010864120811675e-08,
                8.742279078433057e-08,
                3.7323713997922114e-14,
                1
            ],
            "translation" : [
                -4.2620378337687725e-09,
                3.1483874320983887,
                -0.0043601104989647865
            ]
        },
        {
            "children" : [
                1,
                4
            ],
            "name" : "Body",
            "rotation" : [
                0.7071068286895752,
                -3.456069350704638e-07,
                -3.4560699191388267e-07,
                0.7071067094802856
            ],
            "translation" : [
                -0.5,
                3.1555542945861816,
                -1.3604227304458618
            ]
        },
        {
            "children" : [
                5
            ],
            "name" : "Main",
            "translation" : [
                0,
                -0.19821619987487793,
                0
            ]
        },
        {
            "mesh" : 0,
            "name" : "croc.001",
            "skin" : 0
        },
        {
            "children" : [
                7,
                6
            ],
            "name" : "crocARM",
            "translation" : [
                0,
                -2.7560648918151855,
                0
            ]
        }
    ],
    "animations" : [
        {
            "channels" : [
                {
                    "sampler" : 0,
                    "target" : {
                        "node" : 5,
                        "path" : "translation"
                    }
                },
                {
                    "sampler" : 1,
                    "target" : {
                        "node" : 1,
                        "path" : "rotation"
                    }
                },
                {
                    "sampler" : 2,
                    "target" : {
                        "node" : 0,
                        "path" : "rotation"
                    }
                },
                {
                    "sampler" : 3,
                    "target" : {
                        "node" : 2,
                        "path" : "translation"
                    }
                },
                {
                    "sampler" : 4,
                    "target" : {
                        "node" : 2,
                        "path" : "rotation"
                    }
                },
                {
                    "sampler" : 5,
                    "target" : {
                        "node" : 3,
                        "path" : "rotation"
                    }
                }
            ],
            "name" : "crocARMAction",
            "samplers" : [
                {
                    "input" : 37,
                    "interpolation" : "LINEAR",
                    "output" : 38
                },
                {
                    "input" : 37,
                    "interpolation" : "LINEAR",
                    "output" : 39
                },
                {
                    "input" : 37,
                    "interpolation" : "LINEAR",
                    "output" : 40
                },
                {
                    "input" : 37,
                    "interpolation" : "LINEAR",
                    "output" : 41
                },
                {
                    "input" : 37,
                    "interpolation" : "LINEAR",
                    "output" : 42
                },
                {
                    "input" : 37,
                    "interpolation" : "LINEAR",
                    "output" : 43
                }
            ]
        }
    ],
    "materials" : [
        {
            "doubleSided" : true,
            "name" : "crocBod",
            "pbrMetallicRoughness" : {
                "baseColorTexture" : {
                    "index" : 0
                },
                "metallicFactor" : 0,
                "roughnessFactor" : 0.4000000059604645
            }
        },
        {
            "doubleSided" : true,
            "name" : "crocMouth",
            "pbrMetallicRoughness" : {
                "baseColorFactor" : [
                    0.8000000715255737,
                    0.027829747647047043,
                    0.044395290315151215,
                    1
                ],
                "metallicFactor" : 0,
                "roughnessFactor" : 0.5
            }
        },
        {
            "doubleSided" : true,
            "name" : "eyeBlack",
            "pbrMetallicRoughness" : {
                "baseColorFactor" : [
                    0,
                    0,
                    0,
                    1
                ],
                "metallicFactor" : 0,
                "roughnessFactor" : 0.5
            }
        },
        {
            "doubleSided" : true,
            "name" : "eyeWhite",
            "pbrMetallicRoughness" : {
                "baseColorFactor" : [
                    0.800000011920929,
                    0.800000011920929,
                    0.800000011920929,
                    1
                ],
                "metallicFactor" : 0,
                "roughnessFactor" : 0.5
            }
        },
        {
            "doubleSided" : true,
            "name" : "teeth",
            "pbrMetallicRoughness" : {
                "metallicFactor" : 0,
                "roughnessFactor" : 0.5
            }
        },
        {
            "doubleSided" : true,
            "name" : "limbs",
            "pbrMetallicRoughness" : {
                "baseColorFactor" : [
                    0.3726755976676941,
                    0.5885248780250549,
                    0.03624524548649788,
                    1
                ],
                "metallicFactor" : 0,
                "roughnessFactor" : 0.5
            }
        }
    ],
    "meshes" : [
        {
            "name" : "Cube.001",
            "primitives" : [
                {
                    "attributes" : {
                        "POSITION" : 0,
                        "NORMAL" : 1,
                        "TEXCOORD_0" : 2,
                        "JOINTS_0" : 3,
                        "WEIGHTS_0" : 4
                    },
                    "indices" : 5,
                    "material" : 0
                },
                {
                    "attributes" : {
                        "POSITION" : 6,
                        "NORMAL" : 7,
                        "TEXCOORD_0" : 8,
                        "JOINTS_0" : 9,
                        "WEIGHTS_0" : 10
                    },
                    "indices" : 11,
                    "material" : 1
                },
                {
                    "attributes" : {
                        "POSITION" : 12,
                        "NORMAL" : 13,
                        "TEXCOORD_0" : 14,
                        "JOINTS_0" : 15,
                        "WEIGHTS_0" : 16
                    },
                    "indices" : 17,
                    "material" : 2
                },
                {
                    "attributes" : {
                        "POSITION" : 18,
                        "NORMAL" : 19,
                        "TEXCOORD_0" : 20,
                        "JOINTS_0" : 21,
                        "WEIGHTS_0" : 22
                    },
                    "indices" : 23,
                    "material" : 3
                },
                {
                    "attributes" : {
                        "POSITION" : 24,
                        "NORMAL" : 25,
                        "TEXCOORD_0" : 26,
                        "JOINTS_0" : 27,
                        "WEIGHTS_0" : 28
                    },
                    "indices" : 29,
                    "material" : 4
                },
                {
                    "attributes" : {
                        "POSITION" : 30,
                        "NORMAL" : 31,
                        "TEXCOORD_0" : 32,
                        "JOINTS_0" : 33,
                        "WEIGHTS_0" : 34
                    },
                    "indices" : 35,
                    "material" : 5
                }
            ]
        }
    ],
    "textures" : [
        {
            "sampler" : 0,
            "source" : 0
        }
    ],
    "images" : [
        {
            "bufferView" : 6,
            "mimeType" : "image/png",
            "name" : "crocBod"
        }
    ],
    "skins" : [
        {
            "inverseBindMatrices" : 36,
            "joints" : [
                6,
                5,
                1,
                0,
                4,
                2,
                3
            ],
            "name" : "crocARM"
        }
    ],
    "accessors" : [
        {
            "bufferView" : 0,
            "componentType" : 5126,
            "count" : 1725,
            "max" : [
                1.587554693222046,
                1.363041877746582,
                5.376377105712891
            ],
            "min" : [
                -1.5875545740127563,
                -0.6511309146881104,
                -5.185835838317871
            ],
            "type" : "VEC3"
        },
        {
            "bufferView" : 1,
            "componentType" : 5126,
            "count" : 1725,
            "type" : "VEC3"
        },
        {
            "bufferView" : 2,
            "componentType" : 5126,
            "count" : 1725,
            "type" : "VEC2"
        },
        {
            "bufferView" : 3,
            "componentType" : 5121,
            "count" : 1725,
            "type" : "VEC4"
        },
        {
            "bufferView" : 4,
            "componentType" : 5126,
            "count" : 1725,
            "type" : "VEC4"
        },
        {
            "bufferView" : 5,
            "componentType" : 5123,
            "count" : 7116,
            "type" : "SCALAR"
        },
        {
            "bufferView" : 7,
            "componentType" : 5126,
            "count" : 380,
            "max" : [
                1.129485845565796,
                0.06455618888139725,
                5.2887067794799805
            ],
            "min" : [
                -1.1294859647750854,
                -0.07465299963951111,
                3.72255802154541
            ],
            "type" : "VEC3"
        },
        {
            "bufferView" : 8,
            "componentType" : 5126,
            "count" : 380,
            "type" : "VEC3"
        },
        {
            "bufferView" : 9,
            "componentType" : 5126,
            "count" : 380,
            "type" : "VEC2"
        },
        {
            "bufferView" : 10,
            "componentType" : 5121,
            "count" : 380,
            "type" : "VEC4"
        },
        {
            "bufferView" : 11,
            "componentType" : 5126,
            "count" : 380,
            "type" : "VEC4"
        },
        {
            "bufferView" : 12,
            "componentType" : 5123,
            "count" : 1536,
            "type" : "SCALAR"
        },
        {
            "bufferView" : 13,
            "componentType" : 5126,
            "count" : 527,
            "max" : [
                1.277788519859314,
                1.0643397569656372,
                3.1688294410705566
            ],
            "min" : [
                -1.277788519859314,
                0.6977814435958862,
                2.809051275253296
            ],
            "type" : "VEC3"
        },
        {
            "bufferView" : 14,
            "componentType" : 5126,
            "count" : 527,
            "type" : "VEC3"
        },
        {
            "bufferView" : 15,
            "componentType" : 5126,
            "count" : 527,
            "type" : "VEC2"
        },
        {
            "bufferView" : 16,
            "componentType" : 5121,
            "count" : 527,
            "type" : "VEC4"
        },
        {
            "bufferView" : 17,
            "componentType" : 5126,
            "count" : 527,
            "type" : "VEC4"
        },
        {
            "bufferView" : 18,
            "componentType" : 5123,
            "count" : 2160,
            "type" : "SCALAR"
        },
        {
            "bufferView" : 19,
            "componentType" : 5126,
            "count" : 600,
            "max" : [
                1.2517096996307373,
                1.141722559928894,
                3.2440035343170166
            ],
            "min" : [
                -1.2517096996307373,
                0.619989275932312,
                2.7319204807281494
            ],
            "type" : "VEC3"
        },
        {
            "bufferView" : 20,
            "componentType" : 5126,
            "count" : 600,
            "type" : "VEC3"
        },
        {
            "bufferView" : 21,
            "componentType" : 5126,
            "count" : 600,
            "type" : "VEC2"
        },
        {
            "bufferView" : 22,
            "componentType" : 5121,
            "count" : 600,
            "type" : "VEC4"
        },
        {
            "bufferView" : 23,
            "componentType" : 5126,
            "count" : 600,
            "type" : "VEC4"
        },
        {
            "bufferView" : 24,
            "componentType" : 5123,
            "count" : 2880,
            "type" : "SCALAR"
        },
        {
            "bufferView" : 25,
            "componentType" : 5126,
            "count" : 836,
            "max" : [
                1.0341793298721313,
                0.16188330948352814,
                5.005224227905273
            ],
            "min" : [
                -1.0341792106628418,
                -0.16816328465938568,
                4.655582427978516
            ],
            "type" : "VEC3"
        },
        {
            "bufferView" : 26,
            "componentType" : 5126,
            "count" : 836,
            "type" : "VEC3"
        },
        {
            "bufferView" : 27,
            "componentType" : 5126,
            "count" : 836,
            "type" : "VEC2"
        },
        {
            "bufferView" : 28,
            "componentType" : 5121,
            "count" : 836,
            "type" : "VEC4"
        },
        {
            "bufferView" : 29,
            "componentType" : 5126,
            "count" : 836,
            "type" : "VEC4"
        },
        {
            "bufferView" : 30,
            "componentType" : 5123,
            "count" : 4800,
            "type" : "SCALAR"
        },
        {
            "bufferView" : 31,
            "componentType" : 5126,
            "count" : 1776,
            "max" : [
                2.632432460784912,
                0.2865491807460785,
                2.5741517543792725
            ],
            "min" : [
                -2.632432460784912,
                -0.9481686949729919,
                -3.1959521770477295
            ],
            "type" : "VEC3"
        },
        {
            "bufferView" : 32,
            "componentType" : 5126,
            "count" : 1776,
            "type" : "VEC3"
        },
        {
            "bufferView" : 33,
            "componentType" : 5126,
            "count" : 1776,
            "type" : "VEC2"
        },
        {
            "bufferView" : 34,
            "componentType" : 5121,
            "count" : 1776,
            "type" : "VEC4"
        },
        {
            "bufferView" : 35,
            "componentType" : 5126,
            "count" : 1776,
            "type" : "VEC4"
        },
        {
            "bufferView" : 36,
            "componentType" : 5123,
            "count" : 8352,
            "type" : "SCALAR"
        },
        {
            "bufferView" : 37,
            "componentType" : 5126,
            "count" : 7,
            "type" : "MAT4"
        },
        {
            "bufferView" : 38,
            "componentType" : 5126,
            "count" : 31,
            "max" : [
                1.25
            ],
            "min" : [
                0
            ],
            "type" : "SCALAR"
        },
        {
            "bufferView" : 39,
            "componentType" : 5126,
            "count" : 31,
            "type" : "VEC3"
        },
        {
            "bufferView" : 40,
            "componentType" : 5126,
            "count" : 31,
            "type" : "VEC4"
        },
        {
            "bufferView" : 41,
            "componentType" : 5126,
            "count" : 31,
            "type" : "VEC4"
        },
        {
            "bufferView" : 42,
            "componentType" : 5126,
            "count" : 31,
            "type" : "VEC3"
        },
        {
            "bufferView" : 43,
            "componentType" : 5126,
            "count" : 31,
            "type" : "VEC4"
        },
        {
            "bufferView" : 44,
            "componentType" : 5126,
            "count" : 31,
            "type" : "VEC4"
        }
    ],
    "bufferViews" : [
        {
            "buffer" : 0,
            "byteLength" : 20700,
            "byteOffset" : 0
        },
        {
            "buffer" : 0,
            "byteLength" : 20700,
            "byteOffset" : 20700
        },
        {
            "buffer" : 0,
            "byteLength" : 13800,
            "byteOffset" : 41400
        },
        {
            "buffer" : 0,
            "byteLength" : 6900,
            "byteOffset" : 55200
        },
        {
            "buffer" : 0,
            "byteLength" : 27600,
            "byteOffset" : 62100
        },
        {
            "buffer" : 0,
            "byteLength" : 14232,
            "byteOffset" : 89700
        },
        {
            "buffer" : 0,
            "byteLength" : 182540,
            "byteOffset" : 103932
        },
        {
            "buffer" : 0,
            "byteLength" : 4560,
            "byteOffset" : 286472
        },
        {
            "buffer" : 0,
            "byteLength" : 4560,
            "byteOffset" : 291032
        },
        {
            "buffer" : 0,
            "byteLength" : 3040,
            "byteOffset" : 295592
        },
        {
            "buffer" : 0,
            "byteLength" : 1520,
            "byteOffset" : 298632
        },
        {
            "buffer" : 0,
            "byteLength" : 6080,
            "byteOffset" : 300152
        },
        {
            "buffer" : 0,
            "byteLength" : 3072,
            "byteOffset" : 306232
        },
        {
            "buffer" : 0,
            "byteLength" : 6324,
            "byteOffset" : 309304
        },
        {
            "buffer" : 0,
            "byteLength" : 6324,
            "byteOffset" : 315628
        },
        {
            "buffer" : 0,
            "byteLength" : 4216,
            "byteOffset" : 321952
        },
        {
            "buffer" : 0,
            "byteLength" : 2108,
            "byteOffset" : 326168
        },
        {
            "buffer" : 0,
            "byteLength" : 8432,
            "byteOffset" : 328276
        },
        {
            "buffer" : 0,
            "byteLength" : 4320,
            "byteOffset" : 336708
        },
        {
            "buffer" : 0,
            "byteLength" : 7200,
            "byteOffset" : 341028
        },
        {
            "buffer" : 0,
            "byteLength" : 7200,
            "byteOffset" : 348228
        },
        {
            "buffer" : 0,
            "byteLength" : 4800,
            "byteOffset" : 355428
        },
        {
            "buffer" : 0,
            "byteLength" : 2400,
            "byteOffset" : 360228
        },
        {
            "buffer" : 0,
            "byteLength" : 9600,
            "byteOffset" : 362628
        },
        {
            "buffer" : 0,
            "byteLength" : 5760,
            "byteOffset" : 372228
        },
        {
            "buffer" : 0,
            "byteLength" : 10032,
            "byteOffset" : 377988
        },
        {
            "buffer" : 0,
            "byteLength" : 10032,
            "byteOffset" : 388020
        },
        {
            "buffer" : 0,
            "byteLength" : 6688,
            "byteOffset" : 398052
        },
        {
            "buffer" : 0,
            "byteLength" : 3344,
            "byteOffset" : 404740
        },
        {
            "buffer" : 0,
            "byteLength" : 13376,
            "byteOffset" : 408084
        },
        {
            "buffer" : 0,
            "byteLength" : 9600,
            "byteOffset" : 421460
        },
        {
            "buffer" : 0,
            "byteLength" : 21312,
            "byteOffset" : 431060
        },
        {
            "buffer" : 0,
            "byteLength" : 21312,
            "byteOffset" : 452372
        },
        {
            "buffer" : 0,
            "byteLength" : 14208,
            "byteOffset" : 473684
        },
        {
            "buffer" : 0,
            "byteLength" : 7104,
            "byteOffset" : 487892
        },
        {
            "buffer" : 0,
            "byteLength" : 28416,
            "byteOffset" : 494996
        },
        {
            "buffer" : 0,
            "byteLength" : 16704,
            "byteOffset" : 523412
        },
        {
            "buffer" : 0,
            "byteLength" : 448,
            "byteOffset" : 540116
        },
        {
            "buffer" : 0,
            "byteLength" : 124,
            "byteOffset" : 540564
        },
        {
            "buffer" : 0,
            "byteLength" : 372,
            "byteOffset" : 540688
        },
        {
            "buffer" : 0,
            "byteLength" : 496,
            "byteOffset" : 541060
        },
        {
            "buffer" : 0,
            "byteLength" : 496,
            "byteOffset" : 541556
        },
        {
            "buffer" : 0,
            "byteLength" : 372,
            "byteOffset" : 542052
        },
        {
            "buffer" : 0,
            "byteLength" : 496,
            "byteOffset" : 542424
        },
        {
            "buffer" : 0,
            "byteLength" : 496,
            "byteOffset" : 542920
        }
    ],
    "samplers" : [
        {
            "magFilter" : 9729,
            "minFilter" : 9987
        }
    ],
    "buffers" : [
        {
            "byteLength" : 543416,
            "uri" : "data:application/octet-stream;base64,"
        }
    ]
}
