{
    "asset" : {
        "generator" : "Khronos glTF Blender I/O v1.7.33",
        "version" : "2.0"
    },
    "scene" : 0,
    "scenes" : [
        {
            "name" : "Scene",
            "nodes" : [
                0
            ]
        }
    ],
    "nodes" : [
        {
            "mesh" : 0,
            "name" : "Cylinder",
            "rotation" : [
                0.7071068286895752,
                -0.7071067094802856,
                0,
                5.338508302088485e-08
            ],
            "scale" : [
                0.47380998730659485,
                0.47380998730659485,
                0.47380998730659485
            ],
            "translation" : [
                -2.73551607131958,
                0.014520175755023956,
                0
            ]
        }
    ],
    "materials" : [
        {
            "doubleSided" : true,
            "name" : "Material.009",
            "pbrMetallicRoughness" : {
                "baseColorFactor" : [
                    0.03741005063056946,
                    0.03741005063056946,
                    0.03741005063056946,
                    1
                ],
                "metallicFactor" : 0,
                "roughnessFactor" : 0.5
            }
        },
        {
            "doubleSided" : true,
            "name" : "Material.008",
            "pbrMetallicRoughness" : {
                "baseColorFactor" : [
                    0.2395523190498352,
                    0.08625709265470505,
                    0.018105855211615562,
                    1
                ],
                "metallicFactor" : 0,
                "roughnessFactor" : 0.5
            }
        }
    ],
    "meshes" : [
        {
            "name" : "Cylinder",
            "primitives" : [
                {
                    "attributes" : {
                        "POSITION" : 0,
                        "NORMAL" : 1,
                        "TEXCOORD_0" : 2
                    },
                    "indices" : 3,
                    "material" : 0
                },
                {
                    "attributes" : {
                        "POSITION" : 4,
                        "NORMAL" : 5,
                        "TEXCOORD_0" : 6
                    },
                    "indices" : 7,
                    "material" : 1
                }
            ]
        }
    ],
    "accessors" : [
        {
            "bufferView" : 0,
            "componentType" : 5126,
            "count" : 5342,
            "max" : [
                3.9392287731170654,
                12.710801124572754,
                1.5211384296417236
            ],
            "min" : [
                -2.662076950073242,
                -13.034528732299805,
                -1.5211373567581177
            ],
            "type" : "VEC3"
        },
        {
            "bufferView" : 1,
            "componentType" : 5126,
            "count" : 5342,
            "type" : "VEC3"
        },
        {
            "bufferView" : 2,
            "componentType" : 5126,
            "count" : 5342,
            "type" : "VEC2"
        },
        {
            "bufferView" : 3,
            "componentType" : 5123,
            "count" : 9156,
            "type" : "SCALAR"
        },
        {
            "bufferView" : 4,
            "componentType" : 5126,
            "count" : 904,
            "max" : [
                4.496190071105957,
                3.675870418548584,
                1.0000001192092896
            ],
            "min" : [
                -1.000000238418579,
                -8.614838600158691,
                -1.000000238418579
            ],
            "type" : "VEC3"
        },
        {
            "bufferView" : 5,
            "componentType" : 5126,
            "count" : 904,
            "type" : "VEC3"
        },
        {
            "bufferView" : 6,
            "componentType" : 5126,
            "count" : 904,
            "type" : "VEC2"
        },
        {
            "bufferView" : 7,
            "componentType" : 5123,
            "count" : 1404,
            "type" : "SCALAR"
        }
    ],
    "bufferViews" : [
        {
            "buffer" : 0,
            "byteLength" : 64104,
            "byteOffset" : 0
        },
        {
            "buffer" : 0,
            "byteLength" : 64104,
            "byteOffset" : 64104
        },
        {
            "buffer" : 0,
            "byteLength" : 42736,
            "byteOffset" : 128208
        },
        {
            "buffer" : 0,
            "byteLength" : 18312,
            "byteOffset" : 170944
        },
        {
            "buffer" : 0,
            "byteLength" : 10848,
            "byteOffset" : 189256
        },
        {
            "buffer" : 0,
            "byteLength" : 10848,
            "byteOffset" : 200104
        },
        {
            "buffer" : 0,
            "byteLength" : 7232,
            "byteOffset" : 210952
        },
        {
            "buffer" : 0,
            "byteLength" : 2808,
            "byteOffset" : 218184
        }
    ],
    "buffers" : [
        {
            "byteLength" : 220992,
            "uri" : "data:application/octet-stream;base64,"
        }
    ]
}
