{
    "asset" : {
        "generator" : "Khronos glTF Blender I/O v1.7.33",
        "version" : "2.0"
    },
    "scene" : 0,
    "scenes" : [
        {
            "name" : "Scene",
            "nodes" : [
                5
            ]
        }
    ],
    "nodes" : [
        {
            "mesh" : 0,
            "name" : "Cylinder.001",
            "rotation" : [
                0,
                0,
                -0.7071068286895752,
                0.7071067094802856
            ],
            "scale" : [
                0.1070813238620758,
                9.338691711425781,
                1
            ],
            "translation" : [
                -1.52587890625e-05,
                0,
                1.800196647644043
            ]
        },
        {
            "mesh" : 1,
            "name" : "Cylinder.002",
            "rotation" : [
                -0.7071068286895752,
                0,
                0,
                0.7071067094802856
            ],
            "scale" : [
                0.3010900616645813,
                6.847780704498291,
                0.032241132110357285
            ],
            "translation" : [
                -7.62939453125e-06,
                0.8428602814674377,
                -7.2002644538879395
            ]
        },
        {
            "mesh" : 2,
            "name" : "Cylinder.004",
            "rotation" : [
                0,
                0,
                -0.7071068286895752,
                0.7071067094802856
            ],
            "scale" : [
                0.032241132110357285,
                6.847780704498291,
                0.3010900616645813
            ],
            "translation" : [
                -7.62939453125e-06,
                0.8428602814674377,
                -7.2002644538879395
            ]
        },
        {
            "mesh" : 2,
            "name" : "Cylinder.005",
            "rotation" : [
                0,
                0,
                -0.7071068286895752,
                0.7071067094802856
            ],
            "scale" : [
                0.032241132110357285,
                6.847780704498291,
                0.3010900616645813
            ],
            "translation" : [
                -7.62939453125e-06,
                0.842860221862793,
                -16.916540145874023
            ]
        },
        {
            "mesh" : 3,
            "name" : "Plane",
            "scale" : [
                6.847780704498291,
                0.7332696318626404,
                4.615083694458008
            ],
            "translation" : [
                -7.62939453125e-06,
                0.8735234141349792,
                -12.082855224609375
            ]
        },
        {
            "children" : [
                0,
                1,
                2,
                3,
                4
            ],
            "mesh" : 4,
            "name" : "raft",
            "rotation" : [
                0.7071068286895752,
                0,
                0,
                0.7071068286895752
            ],
            "scale" : [
                0.1460326910018921,
                1.3637546300888062,
                0.1460326910018921
            ],
            "translation" : [
                10.954322814941406,
                2.185558557510376,
                0.003983209375292063
            ]
        }
    ],
    "materials" : [
        {
            "doubleSided" : true,
            "name" : "wood1",
            "pbrMetallicRoughness" : {
                "baseColorFactor" : [
                    0.12621764838695526,
                    0.04952962324023247,
                    0.02267870120704174,
                    1
                ],
                "metallicFactor" : 0,
                "roughnessFactor" : 0.5
            }
        },
        {
            "doubleSided" : true,
            "name" : "wood2",
            "pbrMetallicRoughness" : {
                "baseColorFactor" : [
                    0.8000000715255737,
                    0.43885713815689087,
                    0.24851523339748383,
                    1
                ],
                "metallicFactor" : 0,
                "roughnessFactor" : 0.5
            }
        },
        {
            "doubleSided" : true,
            "name" : "wood3",
            "pbrMetallicRoughness" : {
                "baseColorFactor" : [
                    1,
                    0.8137417435646057,
                    0.43210694193840027,
                    1
                ],
                "metallicFactor" : 0,
                "roughnessFactor" : 0.5
            }
        },
        {
            "doubleSided" : true,
            "name" : "sail",
            "pbrMetallicRoughness" : {
                "metallicFactor" : 0,
                "roughnessFactor" : 0.5
            }
        }
    ],
    "meshes" : [
        {
            "name" : "Cylinder.004",
            "primitives" : [
                {
                    "attributes" : {
                        "POSITION" : 0,
                        "NORMAL" : 1,
                        "TEXCOORD_0" : 2
                    },
                    "indices" : 3,
                    "material" : 0
                },
                {
                    "attributes" : {
                        "POSITION" : 4,
                        "NORMAL" : 5,
                        "TEXCOORD_0" : 6
                    },
                    "indices" : 7,
                    "material" : 1
                },
                {
                    "attributes" : {
                        "POSITION" : 8,
                        "NORMAL" : 9,
                        "TEXCOORD_0" : 10
                    },
                    "indices" : 11,
                    "material" : 2
                }
            ]
        },
        {
            "name" : "Cylinder.005",
            "primitives" : [
                {
                    "attributes" : {
                        "POSITION" : 12,
                        "NORMAL" : 13,
                        "TEXCOORD_0" : 14
                    },
                    "indices" : 15,
                    "material" : 1
                }
            ]
        },
        {
            "name" : "Cylinder.006",
            "primitives" : [
                {
                    "attributes" : {
                        "POSITION" : 16,
                        "NORMAL" : 17,
                        "TEXCOORD_0" : 18
                    },
                    "indices" : 15,
                    "material" : 1
                }
            ]
        },
        {
            "name" : "Plane.002",
            "primitives" : [
                {
                    "attributes" : {
                        "POSITION" : 19,
                        "NORMAL" : 20,
                        "TEXCOORD_0" : 21
                    },
                    "indices" : 22,
                    "material" : 3
                }
            ]
        },
        {
            "name" : "Cylinder",
            "primitives" : [
                {
                    "attributes" : {
                        "POSITION" : 23,
                        "NORMAL" : 24,
                        "TEXCOORD_0" : 25
                    },
                    "indices" : 26,
                    "material" : 0
                },
                {
                    "attributes" : {
                        "POSITION" : 27,
                        "NORMAL" : 28,
                        "TEXCOORD_0" : 29
                    },
                    "indices" : 30,
                    "material" : 1
                },
                {
                    "attributes" : {
                        "POSITION" : 31,
                        "NORMAL" : 32,
                        "TEXCOORD_0" : 33
                    },
                    "indices" : 34,
                    "material" : 2
                }
            ]
        }
    ],
    "accessors" : [
        {
            "bufferView" : 0,
            "componentType" : 5126,
            "count" : 244,
            "max" : [
                11.998581886291504,
                0.9970793128013611,
                1.0000001192092896
            ],
            "min" : [
                -11.981727600097656,
                -1.0029207468032837,
                -0.9999998807907104
            ],
            "type" : "VEC3"
        },
        {
            "bufferView" : 1,
            "componentType" : 5126,
            "count" : 244,
            "type" : "VEC3"
        },
        {
            "bufferView" : 2,
            "componentType" : 5126,
            "count" : 244,
            "type" : "VEC2"
        },
        {
            "bufferView" : 3,
            "componentType" : 5123,
            "count" : 1008,
            "type" : "SCALAR"
        },
        {
            "bufferView" : 4,
            "componentType" : 5126,
            "count" : 48,
            "max" : [
                11.844498634338379,
                0.9847555756568909,
                0.8459163308143616
            ],
            "min" : [
                -11.827643394470215,
                -0.9923902153968811,
                -0.8459160923957825
            ],
            "type" : "VEC3"
        },
        {
            "bufferView" : 5,
            "componentType" : 5126,
            "count" : 48,
            "type" : "VEC3"
        },
        {
            "bufferView" : 6,
            "componentType" : 5126,
            "count" : 48,
            "type" : "VEC2"
        },
        {
            "bufferView" : 7,
            "componentType" : 5123,
            "count" : 120,
            "type" : "SCALAR"
        },
        {
            "bufferView" : 8,
            "componentType" : 5126,
            "count" : 1476,
            "max" : [
                12.101048469543457,
                0.9017151594161987,
                1.1024755239486694
            ],
            "min" : [
                -12.08419418334961,
                -0.9005891680717468,
                -1.1024789810180664
            ],
            "type" : "VEC3"
        },
        {
            "bufferView" : 9,
            "componentType" : 5126,
            "count" : 1476,
            "type" : "VEC3"
        },
        {
            "bufferView" : 10,
            "componentType" : 5126,
            "count" : 1476,
            "type" : "VEC2"
        },
        {
            "bufferView" : 11,
            "componentType" : 5123,
            "count" : 6912,
            "type" : "SCALAR"
        },
        {
            "bufferView" : 12,
            "componentType" : 5126,
            "count" : 42,
            "max" : [
                0.9510565400123596,
                1.7888336181640625,
                1
            ],
            "min" : [
                -0.9510564804077148,
                -1,
                -1
            ],
            "type" : "VEC3"
        },
        {
            "bufferView" : 13,
            "componentType" : 5126,
            "count" : 42,
            "type" : "VEC3"
        },
        {
            "bufferView" : 14,
            "componentType" : 5126,
            "count" : 42,
            "type" : "VEC2"
        },
        {
            "bufferView" : 15,
            "componentType" : 5123,
            "count" : 108,
            "type" : "SCALAR"
        },
        {
            "bufferView" : 16,
            "componentType" : 5126,
            "count" : 42,
            "max" : [
                0.9510565400123596,
                1,
                1
            ],
            "min" : [
                -0.9510564804077148,
                -1,
                -1
            ],
            "type" : "VEC3"
        },
        {
            "bufferView" : 17,
            "componentType" : 5126,
            "count" : 42,
            "type" : "VEC3"
        },
        {
            "bufferView" : 18,
            "componentType" : 5126,
            "count" : 42,
            "type" : "VEC2"
        },
        {
            "bufferView" : 19,
            "componentType" : 5126,
            "count" : 26,
            "max" : [
                1,
                0.27062851190567017,
                1
            ],
            "min" : [
                -1,
                0,
                -1
            ],
            "type" : "VEC3"
        },
        {
            "bufferView" : 20,
            "componentType" : 5126,
            "count" : 26,
            "type" : "VEC3"
        },
        {
            "bufferView" : 21,
            "componentType" : 5126,
            "count" : 26,
            "type" : "VEC2"
        },
        {
            "bufferView" : 22,
            "componentType" : 5123,
            "count" : 72,
            "type" : "SCALAR"
        },
        {
            "bufferView" : 23,
            "componentType" : 5126,
            "count" : 976,
            "max" : [
                8.717296600341797,
                1.4110074043273926,
                1.000000238418579
            ],
            "min" : [
                -8.717353820800781,
                -1.416477918624878,
                -1
            ],
            "type" : "VEC3"
        },
        {
            "bufferView" : 24,
            "componentType" : 5126,
            "count" : 976,
            "type" : "VEC3"
        },
        {
            "bufferView" : 25,
            "componentType" : 5126,
            "count" : 976,
            "type" : "VEC2"
        },
        {
            "bufferView" : 26,
            "componentType" : 5123,
            "count" : 4032,
            "type" : "SCALAR"
        },
        {
            "bufferView" : 27,
            "componentType" : 5126,
            "count" : 192,
            "max" : [
                8.563213348388672,
                1.3935848474502563,
                0.8459165096282959
            ],
            "min" : [
                -8.563270568847656,
                -1.4015904664993286,
                -0.8459162712097168
            ],
            "type" : "VEC3"
        },
        {
            "bufferView" : 28,
            "componentType" : 5126,
            "count" : 192,
            "type" : "VEC3"
        },
        {
            "bufferView" : 29,
            "componentType" : 5126,
            "count" : 192,
            "type" : "VEC2"
        },
        {
            "bufferView" : 30,
            "componentType" : 5123,
            "count" : 480,
            "type" : "SCALAR"
        },
        {
            "bufferView" : 31,
            "componentType" : 5126,
            "count" : 5904,
            "max" : [
                8.819780349731445,
                1.2531211376190186,
                1.102475643157959
            ],
            "min" : [
                -8.819820404052734,
                -1.2479872703552246,
                -1.102479100227356
            ],
            "type" : "VEC3"
        },
        {
            "bufferView" : 32,
            "componentType" : 5126,
            "count" : 5904,
            "type" : "VEC3"
        },
        {
            "bufferView" : 33,
            "componentType" : 5126,
            "count" : 5904,
            "type" : "VEC2"
        },
        {
            "bufferView" : 34,
            "componentType" : 5123,
            "count" : 27648,
            "type" : "SCALAR"
        }
    ],
    "bufferViews" : [
        {
            "buffer" : 0,
            "byteLength" : 2928,
            "byteOffset" : 0
        },
        {
            "buffer" : 0,
            "byteLength" : 2928,
            "byteOffset" : 2928
        },
        {
            "buffer" : 0,
            "byteLength" : 1952,
            "byteOffset" : 5856
        },
        {
            "buffer" : 0,
            "byteLength" : 2016,
            "byteOffset" : 7808
        },
        {
            "buffer" : 0,
            "byteLength" : 576,
            "byteOffset" : 9824
        },
        {
            "buffer" : 0,
            "byteLength" : 576,
            "byteOffset" : 10400
        },
        {
            "buffer" : 0,
            "byteLength" : 384,
            "byteOffset" : 10976
        },
        {
            "buffer" : 0,
            "byteLength" : 240,
            "byteOffset" : 11360
        },
        {
            "buffer" : 0,
            "byteLength" : 17712,
            "byteOffset" : 11600
        },
        {
            "buffer" : 0,
            "byteLength" : 17712,
            "byteOffset" : 29312
        },
        {
            "buffer" : 0,
            "byteLength" : 11808,
            "byteOffset" : 47024
        },
        {
            "buffer" : 0,
            "byteLength" : 13824,
            "byteOffset" : 58832
        },
        {
            "buffer" : 0,
            "byteLength" : 504,
            "byteOffset" : 72656
        },
        {
            "buffer" : 0,
            "byteLength" : 504,
            "byteOffset" : 73160
        },
        {
            "buffer" : 0,
            "byteLength" : 336,
            "byteOffset" : 73664
        },
        {
            "buffer" : 0,
            "byteLength" : 216,
            "byteOffset" : 74000
        },
        {
            "buffer" : 0,
            "byteLength" : 504,
            "byteOffset" : 74216
        },
        {
            "buffer" : 0,
            "byteLength" : 504,
            "byteOffset" : 74720
        },
        {
            "buffer" : 0,
            "byteLength" : 336,
            "byteOffset" : 75224
        },
        {
            "buffer" : 0,
            "byteLength" : 312,
            "byteOffset" : 75560
        },
        {
            "buffer" : 0,
            "byteLength" : 312,
            "byteOffset" : 75872
        },
        {
            "buffer" : 0,
            "byteLength" : 208,
            "byteOffset" : 76184
        },
        {
            "buffer" : 0,
            "byteLength" : 144,
            "byteOffset" : 76392
        },
        {
            "buffer" : 0,
            "byteLength" : 11712,
            "byteOffset" : 76536
        },
        {
            "buffer" : 0,
            "byteLength" : 11712,
            "byteOffset" : 88248
        },
        {
            "buffer" : 0,
            "byteLength" : 7808,
            "byteOffset" : 99960
        },
        {
            "buffer" : 0,
            "byteLength" : 8064,
            "byteOffset" : 107768
        },
        {
            "buffer" : 0,
            "byteLength" : 2304,
            "byteOffset" : 115832
        },
        {
            "buffer" : 0,
            "byteLength" : 2304,
            "byteOffset" : 118136
        },
        {
            "buffer" : 0,
            "byteLength" : 1536,
            "byteOffset" : 120440
        },
        {
            "buffer" : 0,
            "byteLength" : 960,
            "byteOffset" : 121976
        },
        {
            "buffer" : 0,
            "byteLength" : 70848,
            "byteOffset" : 122936
        },
        {
            "buffer" : 0,
            "byteLength" : 70848,
            "byteOffset" : 193784
        },
        {
            "buffer" : 0,
            "byteLength" : 47232,
            "byteOffset" : 264632
        },
        {
            "buffer" : 0,
            "byteLength" : 55296,
            "byteOffset" : 311864
        }
    ],
    "buffers" : [
        {
            "byteLength" : 367160,
            "uri" : "data:application/octet-stream;base64,"
        }
    ]
}
