{
    "asset" : {
        "generator" : "Khronos glTF Blender I/O v1.7.33",
        "version" : "2.0"
    },
    "scene" : 0,
    "scenes" : [
        {
            "name" : "Scene",
            "nodes" : [
                5
            ]
        }
    ],
    "nodes" : [
        {
            "mesh" : 0,
            "name" : "Cylinder.001",
            "translation" : [
                -2.574920654296875e-05,
                -0.26288294792175293,
                -0.0035743059124797583
            ]
        },
        {
            "mesh" : 1,
            "name" : "Cylinder.002",
            "translation" : [
                -1.52587890625e-05,
                1.4458949565887451,
                1.1471104621887207
            ]
        },
        {
            "mesh" : 2,
            "name" : "Cylinder.004",
            "translation" : [
                -1.9073486328125e-05,
                1.0514781475067139,
                1.1471105813980103
            ]
        },
        {
            "mesh" : 3,
            "name" : "Cylinder.005",
            "translation" : [
                -1.9073486328125e-05,
                2.470372200012207,
                1.1471105813980103
            ]
        },
        {
            "mesh" : 4,
            "name" : "Plane",
            "translation" : [
                -1.9073486328125e-05,
                1.7644965648651123,
                1.3709708452224731
            ]
        },
        {
            "children" : [
                0,
                1,
                2,
                3,
                4
            ],
            "mesh" : 5,
            "name" : "raft"
        }
    ],
    "materials" : [
        {
            "doubleSided" : true,
            "name" : "wood1",
            "pbrMetallicRoughness" : {
                "baseColorFactor" : [
                    0.12621764838695526,
                    0.04952962324023247,
                    0.02267870120704174,
                    1
                ],
                "metallicFactor" : 0,
                "roughnessFactor" : 0.5
            }
        },
        {
            "doubleSided" : true,
            "name" : "wood2",
            "pbrMetallicRoughness" : {
                "baseColorFactor" : [
                    0.8000000715255737,
                    0.43885713815689087,
                    0.24851523339748383,
                    1
                ],
                "metallicFactor" : 0,
                "roughnessFactor" : 0.5
            }
        },
        {
            "doubleSided" : true,
            "name" : "wood3",
            "pbrMetallicRoughness" : {
                "baseColorFactor" : [
                    1,
                    0.8137417435646057,
                    0.43210694193840027,
                    1
                ],
                "metallicFactor" : 0,
                "roughnessFactor" : 0.5
            }
        },
        {
            "doubleSided" : true,
            "name" : "sail",
            "pbrMetallicRoughness" : {
                "metallicFactor" : 0,
                "roughnessFactor" : 0.5
            }
        }
    ],
    "meshes" : [
        {
            "name" : "Cylinder.004",
            "primitives" : [
                {
                    "attributes" : {
                        "POSITION" : 0,
                        "NORMAL" : 1,
                        "TEXCOORD_0" : 2
                    },
                    "indices" : 3,
                    "material" : 0
                },
                {
                    "attributes" : {
                        "POSITION" : 4,
                        "NORMAL" : 5,
                        "TEXCOORD_0" : 6
                    },
                    "indices" : 7,
                    "material" : 1
                },
                {
                    "attributes" : {
                        "POSITION" : 8,
                        "NORMAL" : 9,
                        "TEXCOORD_0" : 10
                    },
                    "indices" : 11,
                    "material" : 2
                }
            ]
        },
        {
            "name" : "Cylinder.005",
            "primitives" : [
                {
                    "attributes" : {
                        "POSITION" : 12,
                        "NORMAL" : 13,
                        "TEXCOORD_0" : 14
                    },
                    "indices" : 15,
                    "material" : 1
                }
            ]
        },
        {
            "name" : "Cylinder.006",
            "primitives" : [
                {
                    "attributes" : {
                        "POSITION" : 16,
                        "NORMAL" : 17,
                        "TEXCOORD_0" : 18
                    },
                    "indices" : 15,
                    "material" : 1
                }
            ]
        },
        {
            "name" : "Cylinder.009",
            "primitives" : [
                {
                    "attributes" : {
                        "POSITION" : 19,
                        "NORMAL" : 20,
                        "TEXCOORD_0" : 21
                    },
                    "indices" : 15,
                    "material" : 1
                }
            ]
        },
        {
            "name" : "Plane.002",
            "primitives" : [
                {
                    "attributes" : {
                        "POSITION" : 22,
                        "NORMAL" : 23,
                        "TEXCOORD_0" : 24
                    },
                    "indices" : 25,
                    "material" : 3
                }
            ]
        },
        {
            "name" : "Cylinder",
            "primitives" : [
                {
                    "attributes" : {
                        "POSITION" : 26,
                        "NORMAL" : 27,
                        "TEXCOORD_0" : 28
                    },
                    "indices" : 29,
                    "material" : 0
                },
                {
                    "attributes" : {
                        "POSITION" : 30,
                        "NORMAL" : 31,
                        "TEXCOORD_0" : 32
                    },
                    "indices" : 33,
                    "material" : 1
                },
                {
                    "attributes" : {
                        "POSITION" : 34,
                        "NORMAL" : 35,
                        "TEXCOORD_0" : 36
                    },
                    "indices" : 37,
                    "material" : 2
                }
            ]
        }
    ],
    "accessors" : [
        {
            "bufferView" : 0,
            "componentType" : 5126,
            "count" : 244,
            "max" : [
                1.3597803115844727,
                0.14603209495544434,
                1.7509535551071167
            ],
            "min" : [
                -1.3677291870117188,
                -0.14603328704833984,
                -1.7509549856185913
            ],
            "type" : "VEC3"
        },
        {
            "bufferView" : 1,
            "componentType" : 5126,
            "count" : 244,
            "type" : "VEC3"
        },
        {
            "bufferView" : 2,
            "componentType" : 5126,
            "count" : 244,
            "type" : "VEC2"
        },
        {
            "bufferView" : 3,
            "componentType" : 5123,
            "count" : 1008,
            "type" : "SCALAR"
        },
        {
            "bufferView" : 4,
            "componentType" : 5126,
            "count" : 48,
            "max" : [
                1.3429737091064453,
                0.12353086471557617,
                1.7284520864486694
            ],
            "min" : [
                -1.353367805480957,
                -0.12353205680847168,
                -1.7284537553787231
            ],
            "type" : "VEC3"
        },
        {
            "bufferView" : 5,
            "componentType" : 5126,
            "count" : 48,
            "type" : "VEC3"
        },
        {
            "bufferView" : 6,
            "componentType" : 5126,
            "count" : 48,
            "type" : "VEC2"
        },
        {
            "bufferView" : 7,
            "componentType" : 5123,
            "count" : 120,
            "type" : "SCALAR"
        },
        {
            "bufferView" : 8,
            "componentType" : 5126,
            "count" : 1476,
            "max" : [
                1.229726791381836,
                0.1609973907470703,
                1.7659169435501099
            ],
            "min" : [
                -1.2281742095947266,
                -0.16099798679351807,
                -1.7659183740615845
            ],
            "type" : "VEC3"
        },
        {
            "bufferView" : 9,
            "componentType" : 5126,
            "count" : 1476,
            "type" : "VEC3"
        },
        {
            "bufferView" : 10,
            "componentType" : 5126,
            "count" : 1476,
            "type" : "VEC2"
        },
        {
            "bufferView" : 11,
            "componentType" : 5123,
            "count" : 6912,
            "type" : "SCALAR"
        },
        {
            "bufferView" : 12,
            "componentType" : 5126,
            "count" : 42,
            "max" : [
                0.041815757751464844,
                1.3944165706634521,
                0.043969035148620605
            ],
            "min" : [
                -0.041817665100097656,
                -1.3944168090820312,
                -0.043969035148620605
            ],
            "type" : "VEC3"
        },
        {
            "bufferView" : 13,
            "componentType" : 5126,
            "count" : 42,
            "type" : "VEC3"
        },
        {
            "bufferView" : 14,
            "componentType" : 5126,
            "count" : 42,
            "type" : "VEC2"
        },
        {
            "bufferView" : 15,
            "componentType" : 5123,
            "count" : 108,
            "type" : "SCALAR"
        },
        {
            "bufferView" : 16,
            "componentType" : 5126,
            "count" : 42,
            "max" : [
                1.0000028610229492,
                0.043969154357910156,
                0.04181694984436035
            ],
            "min" : [
                -0.9999971389770508,
                -0.043969154357910156,
                -0.04181718826293945
            ],
            "type" : "VEC3"
        },
        {
            "bufferView" : 17,
            "componentType" : 5126,
            "count" : 42,
            "type" : "VEC3"
        },
        {
            "bufferView" : 18,
            "componentType" : 5126,
            "count" : 42,
            "type" : "VEC2"
        },
        {
            "bufferView" : 19,
            "componentType" : 5126,
            "count" : 42,
            "max" : [
                1.0000028610229492,
                0.043969154357910156,
                0.04181694984436035
            ],
            "min" : [
                -0.9999971389770508,
                -0.043969154357910156,
                -0.04181718826293945
            ],
            "type" : "VEC3"
        },
        {
            "bufferView" : 20,
            "componentType" : 5126,
            "count" : 42,
            "type" : "VEC3"
        },
        {
            "bufferView" : 21,
            "componentType" : 5126,
            "count" : 42,
            "type" : "VEC2"
        },
        {
            "bufferView" : 22,
            "componentType" : 5126,
            "count" : 26,
            "max" : [
                1.0000028610229492,
                0.6739528179168701,
                0.0885850191116333
            ],
            "min" : [
                -0.9999971389770508,
                -0.6739537715911865,
                -0.18204355239868164
            ],
            "type" : "VEC3"
        },
        {
            "bufferView" : 23,
            "componentType" : 5126,
            "count" : 26,
            "type" : "VEC3"
        },
        {
            "bufferView" : 24,
            "componentType" : 5126,
            "count" : 26,
            "type" : "VEC2"
        },
        {
            "bufferView" : 25,
            "componentType" : 5123,
            "count" : 72,
            "type" : "SCALAR"
        },
        {
            "bufferView" : 26,
            "componentType" : 5126,
            "count" : 976,
            "max" : [
                1.2729949951171875,
                0.14603686332702637,
                1.9219236373901367
            ],
            "min" : [
                -1.2730340957641602,
                -0.14602875709533691,
                -1.9340726137161255
            ],
            "type" : "VEC3"
        },
        {
            "bufferView" : 27,
            "componentType" : 5126,
            "count" : 976,
            "type" : "VEC3"
        },
        {
            "bufferView" : 28,
            "componentType" : 5126,
            "count" : 976,
            "type" : "VEC2"
        },
        {
            "bufferView" : 29,
            "componentType" : 5123,
            "count" : 4032,
            "type" : "SCALAR"
        },
        {
            "bufferView" : 30,
            "componentType" : 5126,
            "count" : 192,
            "max" : [
                1.2504940032958984,
                0.1235356330871582,
                1.8981635570526123
            ],
            "min" : [
                -1.250533103942871,
                -0.12352752685546875,
                -1.9137697219848633
            ],
            "type" : "VEC3"
        },
        {
            "bufferView" : 31,
            "componentType" : 5126,
            "count" : 192,
            "type" : "VEC3"
        },
        {
            "bufferView" : 32,
            "componentType" : 5126,
            "count" : 192,
            "type" : "VEC2"
        },
        {
            "bufferView" : 33,
            "componentType" : 5123,
            "count" : 480,
            "type" : "SCALAR"
        },
        {
            "bufferView" : 34,
            "componentType" : 5126,
            "count" : 5904,
            "max" : [
                1.2879610061645508,
                0.16100192070007324,
                1.7066055536270142
            ],
            "min" : [
                -1.2879972457885742,
                -0.16099333763122559,
                -1.70429265499115
            ],
            "type" : "VEC3"
        },
        {
            "bufferView" : 35,
            "componentType" : 5126,
            "count" : 5904,
            "type" : "VEC3"
        },
        {
            "bufferView" : 36,
            "componentType" : 5126,
            "count" : 5904,
            "type" : "VEC2"
        },
        {
            "bufferView" : 37,
            "componentType" : 5123,
            "count" : 27648,
            "type" : "SCALAR"
        }
    ],
    "bufferViews" : [
        {
            "buffer" : 0,
            "byteLength" : 2928,
            "byteOffset" : 0
        },
        {
            "buffer" : 0,
            "byteLength" : 2928,
            "byteOffset" : 2928
        },
        {
            "buffer" : 0,
            "byteLength" : 1952,
            "byteOffset" : 5856
        },
        {
            "buffer" : 0,
            "byteLength" : 2016,
            "byteOffset" : 7808
        },
        {
            "buffer" : 0,
            "byteLength" : 576,
            "byteOffset" : 9824
        },
        {
            "buffer" : 0,
            "byteLength" : 576,
            "byteOffset" : 10400
        },
        {
            "buffer" : 0,
            "byteLength" : 384,
            "byteOffset" : 10976
        },
        {
            "buffer" : 0,
            "byteLength" : 240,
            "byteOffset" : 11360
        },
        {
            "buffer" : 0,
            "byteLength" : 17712,
            "byteOffset" : 11600
        },
        {
            "buffer" : 0,
            "byteLength" : 17712,
            "byteOffset" : 29312
        },
        {
            "buffer" : 0,
            "byteLength" : 11808,
            "byteOffset" : 47024
        },
        {
            "buffer" : 0,
            "byteLength" : 13824,
            "byteOffset" : 58832
        },
        {
            "buffer" : 0,
            "byteLength" : 504,
            "byteOffset" : 72656
        },
        {
            "buffer" : 0,
            "byteLength" : 504,
            "byteOffset" : 73160
        },
        {
            "buffer" : 0,
            "byteLength" : 336,
            "byteOffset" : 73664
        },
        {
            "buffer" : 0,
            "byteLength" : 216,
            "byteOffset" : 74000
        },
        {
            "buffer" : 0,
            "byteLength" : 504,
            "byteOffset" : 74216
        },
        {
            "buffer" : 0,
            "byteLength" : 504,
            "byteOffset" : 74720
        },
        {
            "buffer" : 0,
            "byteLength" : 336,
            "byteOffset" : 75224
        },
        {
            "buffer" : 0,
            "byteLength" : 504,
            "byteOffset" : 75560
        },
        {
            "buffer" : 0,
            "byteLength" : 504,
            "byteOffset" : 76064
        },
        {
            "buffer" : 0,
            "byteLength" : 336,
            "byteOffset" : 76568
        },
        {
            "buffer" : 0,
            "byteLength" : 312,
            "byteOffset" : 76904
        },
        {
            "buffer" : 0,
            "byteLength" : 312,
            "byteOffset" : 77216
        },
        {
            "buffer" : 0,
            "byteLength" : 208,
            "byteOffset" : 77528
        },
        {
            "buffer" : 0,
            "byteLength" : 144,
            "byteOffset" : 77736
        },
        {
            "buffer" : 0,
            "byteLength" : 11712,
            "byteOffset" : 77880
        },
        {
            "buffer" : 0,
            "byteLength" : 11712,
            "byteOffset" : 89592
        },
        {
            "buffer" : 0,
            "byteLength" : 7808,
            "byteOffset" : 101304
        },
        {
            "buffer" : 0,
            "byteLength" : 8064,
            "byteOffset" : 109112
        },
        {
            "buffer" : 0,
            "byteLength" : 2304,
            "byteOffset" : 117176
        },
        {
            "buffer" : 0,
            "byteLength" : 2304,
            "byteOffset" : 119480
        },
        {
            "buffer" : 0,
            "byteLength" : 1536,
            "byteOffset" : 121784
        },
        {
            "buffer" : 0,
            "byteLength" : 960,
            "byteOffset" : 123320
        },
        {
            "buffer" : 0,
            "byteLength" : 70848,
            "byteOffset" : 124280
        },
        {
            "buffer" : 0,
            "byteLength" : 70848,
            "byteOffset" : 195128
        },
        {
            "buffer" : 0,
            "byteLength" : 47232,
            "byteOffset" : 265976
        },
        {
            "buffer" : 0,
            "byteLength" : 55296,
            "byteOffset" : 313208
        }
    ],
    "buffers" : [
        {
            "byteLength" : 368504,
            "uri" : "data:application/octet-stream;base64,"
        }
    ]
}
