{
    "asset" : {
        "generator" : "Khronos glTF Blender I/O v1.7.33",
        "version" : "2.0"
    },
    "scene" : 0,
    "scenes" : [
        {
            "name" : "Scene",
            "nodes" : [
                8
            ]
        }
    ],
    "nodes" : [
        {
            "name" : "Main",
            "rotation" : [
                3.7068019764774363e-09,
                0.09950372576713562,
                -1.1120406817610728e-08,
                0.9950371980667114
            ],
            "scale" : [
                1,
                1,
                1.6000001430511475
            ]
        },
        {
            "name" : "ft_iaw",
            "rotation" : [
                0.002273330930620432,
                4.331246259425825e-07,
                -9.846423676407312e-10,
                0.9999974370002747
            ],
            "scale" : [
                1,
                0.9999999403953552,
                1
            ],
            "translation" : [
                -2.9375701160461176e-07,
                3.5228018760681152,
                -0.3391129970550537
            ]
        },
        {
            "name" : "bt_jaw",
            "rotation" : [
                -0.08051522821187973,
                0.01596577651798725,
                -0.0002339125203434378,
                0.9966254830360413
            ],
            "scale" : [
                1,
                0.9999998807907104,
                0.9999999403953552
            ],
            "translation" : [
                3.594677764340304e-07,
                1.8738770484924316,
                0.41496968269348145
            ]
        },
        {
            "children" : [
                1,
                2
            ],
            "name" : "head",
            "rotation" : [
                0.7071068286895752,
                -3.062661733110872e-07,
                -3.062661733110872e-07,
                0.7071068286895752
            ],
            "translation" : [
                2.518182630072732e-18,
                3.8233301639556885,
                2.5985326766967773
            ]
        },
        {
            "name" : "tail",
            "rotation" : [
                0.28293535113334656,
                0.6480337977409363,
                0.28293538093566895,
                0.6480334997177124
            ],
            "translation" : [
                -0.00830961111932993,
                5.360055446624756,
                1.8413001612316293e-07
            ]
        },
        {
            "children" : [
                4
            ],
            "name" : "back",
            "rotation" : [
                0.10097659379243851,
                -1.291175806272804e-07,
                -1.7769226090535994e-08,
                0.9948889017105103
            ],
            "translation" : [
                -4.76837158203125e-07,
                4.911579132080078,
                2.980237923111417e-08
            ]
        },
        {
            "children" : [
                5
            ],
            "name" : "body",
            "rotation" : [
                -0.45101189613342285,
                -0.4510120153427124,
                0.5445993542671204,
                0.5445989966392517
            ],
            "scale" : [
                1,
                0.9999999403953552,
                0.9999999403953552
            ],
            "translation" : [
                9.568673707115866e-14,
                3.823502779006958,
                1.8177558183670044
            ]
        },
        {
            "mesh" : 0,
            "name" : "sword",
            "skin" : 0
        },
        {
            "children" : [
                7,
                0,
                3,
                6
            ],
            "name" : "swordARM",
            "rotation" : [
                0,
                0.7071068286895752,
                0,
                0.7071068286895752
            ],
            "translation" : [
                0,
                -3.8119893074035645,
                0
            ]
        }
    ],
    "animations" : [
        {
            "channels" : [
                {
                    "sampler" : 0,
                    "target" : {
                        "node" : 0,
                        "path" : "rotation"
                    }
                },
                {
                    "sampler" : 1,
                    "target" : {
                        "node" : 0,
                        "path" : "scale"
                    }
                },
                {
                    "sampler" : 2,
                    "target" : {
                        "node" : 2,
                        "path" : "rotation"
                    }
                },
                {
                    "sampler" : 3,
                    "target" : {
                        "node" : 6,
                        "path" : "rotation"
                    }
                },
                {
                    "sampler" : 4,
                    "target" : {
                        "node" : 5,
                        "path" : "rotation"
                    }
                },
                {
                    "sampler" : 5,
                    "target" : {
                        "node" : 4,
                        "path" : "rotation"
                    }
                }
            ],
            "name" : "ArmatureAction",
            "samplers" : [
                {
                    "input" : 25,
                    "interpolation" : "LINEAR",
                    "output" : 26
                },
                {
                    "input" : 25,
                    "interpolation" : "LINEAR",
                    "output" : 27
                },
                {
                    "input" : 25,
                    "interpolation" : "LINEAR",
                    "output" : 28
                },
                {
                    "input" : 25,
                    "interpolation" : "LINEAR",
                    "output" : 29
                },
                {
                    "input" : 25,
                    "interpolation" : "LINEAR",
                    "output" : 30
                },
                {
                    "input" : 25,
                    "interpolation" : "LINEAR",
                    "output" : 31
                }
            ]
        }
    ],
    "materials" : [
        {
            "doubleSided" : true,
            "name" : "body",
            "pbrMetallicRoughness" : {
                "baseColorTexture" : {
                    "index" : 0
                },
                "metallicFactor" : 0,
                "roughnessFactor" : 0.2781818211078644
            }
        },
        {
            "doubleSided" : true,
            "name" : "fins",
            "pbrMetallicRoughness" : {
                "baseColorFactor" : [
                    0.026930926367640495,
                    0.03186357393860817,
                    0.06776615232229233,
                    1
                ],
                "metallicFactor" : 0,
                "roughnessFactor" : 0.3348623812198639
            }
        },
        {
            "doubleSided" : true,
            "name" : "eyeBlack",
            "pbrMetallicRoughness" : {
                "baseColorFactor" : [
                    0,
                    0,
                    0,
                    1
                ],
                "metallicFactor" : 0,
                "roughnessFactor" : 0.5
            }
        },
        {
            "doubleSided" : true,
            "name" : "eyeWhite",
            "pbrMetallicRoughness" : {
                "baseColorFactor" : [
                    0.800000011920929,
                    0.800000011920929,
                    0.800000011920929,
                    1
                ],
                "metallicFactor" : 0,
                "roughnessFactor" : 0.5
            }
        }
    ],
    "meshes" : [
        {
            "name" : "Cube.001",
            "primitives" : [
                {
                    "attributes" : {
                        "POSITION" : 0,
                        "NORMAL" : 1,
                        "TEXCOORD_0" : 2,
                        "JOINTS_0" : 3,
                        "WEIGHTS_0" : 4
                    },
                    "indices" : 5,
                    "material" : 0
                },
                {
                    "attributes" : {
                        "POSITION" : 6,
                        "NORMAL" : 7,
                        "TEXCOORD_0" : 8,
                        "JOINTS_0" : 9,
                        "WEIGHTS_0" : 10
                    },
                    "indices" : 11,
                    "material" : 1
                },
                {
                    "attributes" : {
                        "POSITION" : 12,
                        "NORMAL" : 13,
                        "TEXCOORD_0" : 14,
                        "JOINTS_0" : 15,
                        "WEIGHTS_0" : 16
                    },
                    "indices" : 17,
                    "material" : 2
                },
                {
                    "attributes" : {
                        "POSITION" : 18,
                        "NORMAL" : 19,
                        "TEXCOORD_0" : 20,
                        "JOINTS_0" : 21,
                        "WEIGHTS_0" : 22
                    },
                    "indices" : 23,
                    "material" : 3
                }
            ]
        }
    ],
    "textures" : [
        {
            "sampler" : 0,
            "source" : 0
        }
    ],
    "images" : [
        {
            "bufferView" : 6,
            "mimeType" : "image/png",
            "name" : "swordBody"
        }
    ],
    "skins" : [
        {
            "inverseBindMatrices" : 24,
            "joints" : [
                0,
                3,
                1,
                2,
                6,
                5,
                4
            ],
            "name" : "swordARM"
        }
    ],
    "accessors" : [
        {
            "bufferView" : 0,
            "componentType" : 5126,
            "count" : 565,
            "max" : [
                10.249055862426758,
                1.7239986658096313,
                1.126404881477356
            ],
            "min" : [
                -8.376019477844238,
                -1.1961989402770996,
                -1.126404881477356
            ],
            "type" : "VEC3"
        },
        {
            "bufferView" : 1,
            "componentType" : 5126,
            "count" : 565,
            "type" : "VEC3"
        },
        {
            "bufferView" : 2,
            "componentType" : 5126,
            "count" : 565,
            "type" : "VEC2"
        },
        {
            "bufferView" : 3,
            "componentType" : 5121,
            "count" : 565,
            "type" : "VEC4"
        },
        {
            "bufferView" : 4,
            "componentType" : 5126,
            "count" : 565,
            "type" : "VEC4"
        },
        {
            "bufferView" : 5,
            "componentType" : 5123,
            "count" : 2352,
            "type" : "SCALAR"
        },
        {
            "bufferView" : 7,
            "componentType" : 5126,
            "count" : 1132,
            "max" : [
                2.7724578380584717,
                3.861981153488159,
                3.2076892852783203
            ],
            "min" : [
                -10.584224700927734,
                -2.455641269683838,
                -3.207688808441162
            ],
            "type" : "VEC3"
        },
        {
            "bufferView" : 8,
            "componentType" : 5126,
            "count" : 1132,
            "type" : "VEC3"
        },
        {
            "bufferView" : 9,
            "componentType" : 5126,
            "count" : 1132,
            "type" : "VEC2"
        },
        {
            "bufferView" : 10,
            "componentType" : 5121,
            "count" : 1132,
            "type" : "VEC4"
        },
        {
            "bufferView" : 11,
            "componentType" : 5126,
            "count" : 1132,
            "type" : "VEC4"
        },
        {
            "bufferView" : 12,
            "componentType" : 5123,
            "count" : 6072,
            "type" : "SCALAR"
        },
        {
            "bufferView" : 13,
            "componentType" : 5126,
            "count" : 530,
            "max" : [
                5.0131306648254395,
                0.41474974155426025,
                0.48399344086647034
            ],
            "min" : [
                4.804157257080078,
                0.20372611284255981,
                -0.48399388790130615
            ],
            "type" : "VEC3"
        },
        {
            "bufferView" : 14,
            "componentType" : 5126,
            "count" : 530,
            "type" : "VEC3"
        },
        {
            "bufferView" : 15,
            "componentType" : 5126,
            "count" : 530,
            "type" : "VEC2"
        },
        {
            "bufferView" : 16,
            "componentType" : 5121,
            "count" : 530,
            "type" : "VEC4"
        },
        {
            "bufferView" : 17,
            "componentType" : 5126,
            "count" : 530,
            "type" : "VEC4"
        },
        {
            "bufferView" : 18,
            "componentType" : 5123,
            "count" : 2160,
            "type" : "SCALAR"
        },
        {
            "bufferView" : 19,
            "componentType" : 5126,
            "count" : 616,
            "max" : [
                5.0595808029174805,
                0.45086294412612915,
                0.4782317578792572
            ],
            "min" : [
                4.761236190795898,
                0.14463727176189423,
                -0.47823214530944824
            ],
            "type" : "VEC3"
        },
        {
            "bufferView" : 20,
            "componentType" : 5126,
            "count" : 616,
            "type" : "VEC3"
        },
        {
            "bufferView" : 21,
            "componentType" : 5126,
            "count" : 616,
            "type" : "VEC2"
        },
        {
            "bufferView" : 22,
            "componentType" : 5121,
            "count" : 616,
            "type" : "VEC4"
        },
        {
            "bufferView" : 23,
            "componentType" : 5126,
            "count" : 616,
            "type" : "VEC4"
        },
        {
            "bufferView" : 24,
            "componentType" : 5123,
            "count" : 2880,
            "type" : "SCALAR"
        },
        {
            "bufferView" : 25,
            "componentType" : 5126,
            "count" : 7,
            "type" : "MAT4"
        },
        {
            "bufferView" : 26,
            "componentType" : 5126,
            "count" : 11,
            "max" : [
                0.4166666666666667
            ],
            "min" : [
                0
            ],
            "type" : "SCALAR"
        },
        {
            "bufferView" : 27,
            "componentType" : 5126,
            "count" : 11,
            "type" : "VEC4"
        },
        {
            "bufferView" : 28,
            "componentType" : 5126,
            "count" : 11,
            "type" : "VEC3"
        },
        {
            "bufferView" : 29,
            "componentType" : 5126,
            "count" : 11,
            "type" : "VEC4"
        },
        {
            "bufferView" : 30,
            "componentType" : 5126,
            "count" : 11,
            "type" : "VEC4"
        },
        {
            "bufferView" : 31,
            "componentType" : 5126,
            "count" : 11,
            "type" : "VEC4"
        },
        {
            "bufferView" : 32,
            "componentType" : 5126,
            "count" : 11,
            "type" : "VEC4"
        }
    ],
    "bufferViews" : [
        {
            "buffer" : 0,
            "byteLength" : 6780,
            "byteOffset" : 0
        },
        {
            "buffer" : 0,
            "byteLength" : 6780,
            "byteOffset" : 6780
        },
        {
            "buffer" : 0,
            "byteLength" : 4520,
            "byteOffset" : 13560
        },
        {
            "buffer" : 0,
            "byteLength" : 2260,
            "byteOffset" : 18080
        },
        {
            "buffer" : 0,
            "byteLength" : 9040,
            "byteOffset" : 20340
        },
        {
            "buffer" : 0,
            "byteLength" : 4704,
            "byteOffset" : 29380
        },
        {
            "buffer" : 0,
            "byteLength" : 101614,
            "byteOffset" : 34084
        },
        {
            "buffer" : 0,
            "byteLength" : 13584,
            "byteOffset" : 135700
        },
        {
            "buffer" : 0,
            "byteLength" : 13584,
            "byteOffset" : 149284
        },
        {
            "buffer" : 0,
            "byteLength" : 9056,
            "byteOffset" : 162868
        },
        {
            "buffer" : 0,
            "byteLength" : 4528,
            "byteOffset" : 171924
        },
        {
            "buffer" : 0,
            "byteLength" : 18112,
            "byteOffset" : 176452
        },
        {
            "buffer" : 0,
            "byteLength" : 12144,
            "byteOffset" : 194564
        },
        {
            "buffer" : 0,
            "byteLength" : 6360,
            "byteOffset" : 206708
        },
        {
            "buffer" : 0,
            "byteLength" : 6360,
            "byteOffset" : 213068
        },
        {
            "buffer" : 0,
            "byteLength" : 4240,
            "byteOffset" : 219428
        },
        {
            "buffer" : 0,
            "byteLength" : 2120,
            "byteOffset" : 223668
        },
        {
            "buffer" : 0,
            "byteLength" : 8480,
            "byteOffset" : 225788
        },
        {
            "buffer" : 0,
            "byteLength" : 4320,
            "byteOffset" : 234268
        },
        {
            "buffer" : 0,
            "byteLength" : 7392,
            "byteOffset" : 238588
        },
        {
            "buffer" : 0,
            "byteLength" : 7392,
            "byteOffset" : 245980
        },
        {
            "buffer" : 0,
            "byteLength" : 4928,
            "byteOffset" : 253372
        },
        {
            "buffer" : 0,
            "byteLength" : 2464,
            "byteOffset" : 258300
        },
        {
            "buffer" : 0,
            "byteLength" : 9856,
            "byteOffset" : 260764
        },
        {
            "buffer" : 0,
            "byteLength" : 5760,
            "byteOffset" : 270620
        },
        {
            "buffer" : 0,
            "byteLength" : 448,
            "byteOffset" : 276380
        },
        {
            "buffer" : 0,
            "byteLength" : 44,
            "byteOffset" : 276828
        },
        {
            "buffer" : 0,
            "byteLength" : 176,
            "byteOffset" : 276872
        },
        {
            "buffer" : 0,
            "byteLength" : 132,
            "byteOffset" : 277048
        },
        {
            "buffer" : 0,
            "byteLength" : 176,
            "byteOffset" : 277180
        },
        {
            "buffer" : 0,
            "byteLength" : 176,
            "byteOffset" : 277356
        },
        {
            "buffer" : 0,
            "byteLength" : 176,
            "byteOffset" : 277532
        },
        {
            "buffer" : 0,
            "byteLength" : 176,
            "byteOffset" : 277708
        }
    ],
    "samplers" : [
        {
            "magFilter" : 9729,
            "minFilter" : 9987
        }
    ],
    "buffers" : [
        {
            "byteLength" : 277884,
            "uri" : "data:application/octet-stream;base64,"
        }
    ]
}
