{
    "asset" : {
        "generator" : "Khronos glTF Blender I/O v1.7.33",
        "version" : "2.0"
    },
    "scene" : 0,
    "scenes" : [
        {
            "name" : "Scene",
            "nodes" : [
                0
            ]
        }
    ],
    "nodes" : [
        {
            "mesh" : 0,
            "name" : "turtle",
            "rotation" : [
                0,
                0.7071068286895752,
                0,
                0.7071068286895752
            ]
        }
    ],
    "materials" : [
        {
            "doubleSided" : true,
            "name" : "turtleBody",
            "pbrMetallicRoughness" : {
                "baseColorTexture" : {
                    "index" : 0
                },
                "metallicFactor" : 0,
                "roughnessFactor" : 0.4000000059604645
            }
        }
    ],
    "meshes" : [
        {
            "name" : "Cube",
            "primitives" : [
                {
                    "attributes" : {
                        "POSITION" : 0,
                        "NORMAL" : 1,
                        "TEXCOORD_0" : 2
                    },
                    "indices" : 3,
                    "material" : 0
                }
            ]
        }
    ],
    "textures" : [
        {
            "sampler" : 0,
            "source" : 0
        }
    ],
    "images" : [
        {
            "bufferView" : 4,
            "mimeType" : "image/png",
            "name" : "body"
        }
    ],
    "accessors" : [
        {
            "bufferView" : 0,
            "componentType" : 5126,
            "count" : 754,
            "max" : [
                1.1533199548721313,
                0.828741192817688,
                2.7873520851135254
            ],
            "min" : [
                -1.1625897884368896,
                -0.8969139456748962,
                -1.4509027004241943
            ],
            "type" : "VEC3"
        },
        {
            "bufferView" : 1,
            "componentType" : 5126,
            "count" : 754,
            "type" : "VEC3"
        },
        {
            "bufferView" : 2,
            "componentType" : 5126,
            "count" : 754,
            "type" : "VEC2"
        },
        {
            "bufferView" : 3,
            "componentType" : 5123,
            "count" : 3312,
            "type" : "SCALAR"
        }
    ],
    "bufferViews" : [
        {
            "buffer" : 0,
            "byteLength" : 9048,
            "byteOffset" : 0
        },
        {
            "buffer" : 0,
            "byteLength" : 9048,
            "byteOffset" : 9048
        },
        {
            "buffer" : 0,
            "byteLength" : 6032,
            "byteOffset" : 18096
        },
        {
            "buffer" : 0,
            "byteLength" : 6624,
            "byteOffset" : 24128
        },
        {
            "buffer" : 0,
            "byteLength" : 205970,
            "byteOffset" : 30752
        }
    ],
    "samplers" : [
        {
            "magFilter" : 9729,
            "minFilter" : 9987
        }
    ],
    "buffers" : [
        {
            "byteLength" : 236724,
            "uri" : "data:application/octet-stream;base64,"
        }
    ]
}
