{
    "asset" : {
        "generator" : "Khronos glTF Blender I/O v1.7.33",
        "version" : "2.0"
    },
    "scene" : 0,
    "scenes" : [
        {
            "name" : "Scene",
            "nodes" : [
                4
            ]
        }
    ],
    "nodes" : [
        {
            "mesh" : 0,
            "name" : "Circle"
        },
        {
            "mesh" : 1,
            "name" : "Cube.001"
        },
        {
            "mesh" : 2,
            "name" : "Cube.002"
        },
        {
            "mesh" : 3,
            "name" : "eye.001"
        },
        {
            "children" : [
                0,
                1,
                2,
                3
            ],
            "mesh" : 4,
            "name" : "turtle"
        }
    ],
    "materials" : [
        {
            "doubleSided" : true,
            "name" : "fins",
            "pbrMetallicRoughness" : {
                "baseColorTexture" : {
                    "index" : 0
                },
                "metallicFactor" : 0,
                "roughnessFactor" : 0.5
            }
        },
        {
            "doubleSided" : true,
            "name" : "eyeBlack",
            "pbrMetallicRoughness" : {
                "baseColorFactor" : [
                    0,
                    0,
                    0,
                    1
                ],
                "metallicFactor" : 0,
                "roughnessFactor" : 0.5
            }
        },
        {
            "doubleSided" : true,
            "name" : "eyeWhite",
            "pbrMetallicRoughness" : {
                "baseColorFactor" : [
                    0.800000011920929,
                    0.800000011920929,
                    0.800000011920929,
                    1
                ],
                "metallicFactor" : 0,
                "roughnessFactor" : 0.5
            }
        },
        {
            "doubleSided" : true,
            "name" : "turtleBody",
            "pbrMetallicRoughness" : {
                "baseColorTexture" : {
                    "index" : 1
                },
                "metallicFactor" : 0,
                "roughnessFactor" : 0.4000000059604645
            }
        }
    ],
    "meshes" : [
        {
            "name" : "Circle",
            "primitives" : [
                {
                    "attributes" : {
                        "POSITION" : 0,
                        "NORMAL" : 1,
                        "TEXCOORD_0" : 2
                    },
                    "indices" : 3,
                    "material" : 0
                }
            ]
        },
        {
            "name" : "Cube.002",
            "primitives" : [
                {
                    "attributes" : {
                        "POSITION" : 4,
                        "NORMAL" : 5,
                        "TEXCOORD_0" : 6
                    },
                    "indices" : 7,
                    "material" : 0
                }
            ]
        },
        {
            "name" : "Cube.003",
            "primitives" : [
                {
                    "attributes" : {
                        "POSITION" : 8,
                        "NORMAL" : 9,
                        "TEXCOORD_0" : 10
                    },
                    "indices" : 11,
                    "material" : 0
                }
            ]
        },
        {
            "name" : "Cube.014",
            "primitives" : [
                {
                    "attributes" : {
                        "POSITION" : 12,
                        "NORMAL" : 13,
                        "TEXCOORD_0" : 14
                    },
                    "indices" : 15,
                    "material" : 1
                },
                {
                    "attributes" : {
                        "POSITION" : 16,
                        "NORMAL" : 17,
                        "TEXCOORD_0" : 18
                    },
                    "indices" : 19,
                    "material" : 2
                }
            ]
        },
        {
            "name" : "Cube",
            "primitives" : [
                {
                    "attributes" : {
                        "POSITION" : 20,
                        "NORMAL" : 21,
                        "TEXCOORD_0" : 22
                    },
                    "indices" : 23,
                    "material" : 3
                }
            ]
        }
    ],
    "textures" : [
        {
            "sampler" : 0,
            "source" : 0
        },
        {
            "sampler" : 0,
            "source" : 1
        }
    ],
    "images" : [
        {
            "bufferView" : 4,
            "mimeType" : "image/png",
            "name" : "fins"
        },
        {
            "bufferView" : 25,
            "mimeType" : "image/png",
            "name" : "body"
        }
    ],
    "accessors" : [
        {
            "bufferView" : 0,
            "componentType" : 5126,
            "count" : 109,
            "max" : [
                0.12878824770450592,
                -0.058091554790735245,
                -1.303615689277649
            ],
            "min" : [
                -0.1474955677986145,
                -0.3355046510696411,
                -1.7987111806869507
            ],
            "type" : "VEC3"
        },
        {
            "bufferView" : 1,
            "componentType" : 5126,
            "count" : 109,
            "type" : "VEC3"
        },
        {
            "bufferView" : 2,
            "componentType" : 5126,
            "count" : 109,
            "type" : "VEC2"
        },
        {
            "bufferView" : 3,
            "componentType" : 5123,
            "count" : 612,
            "type" : "SCALAR"
        },
        {
            "bufferView" : 5,
            "componentType" : 5126,
            "count" : 216,
            "max" : [
                2.3598172664642334,
                0.26412469148635864,
                1.8928382396697998
            ],
            "min" : [
                -2.3598172664642334,
                -0.2564495801925659,
                0.8949582576751709
            ],
            "type" : "VEC3"
        },
        {
            "bufferView" : 6,
            "componentType" : 5126,
            "count" : 216,
            "type" : "VEC3"
        },
        {
            "bufferView" : 7,
            "componentType" : 5126,
            "count" : 216,
            "type" : "VEC2"
        },
        {
            "bufferView" : 8,
            "componentType" : 5123,
            "count" : 672,
            "type" : "SCALAR"
        },
        {
            "bufferView" : 9,
            "componentType" : 5126,
            "count" : 216,
            "max" : [
                2.0391805171966553,
                0.26412469148635864,
                -0.4181179702281952
            ],
            "min" : [
                -2.0391805171966553,
                -0.2564495801925659,
                -2.209019184112549
            ],
            "type" : "VEC3"
        },
        {
            "bufferView" : 10,
            "componentType" : 5126,
            "count" : 216,
            "type" : "VEC3"
        },
        {
            "bufferView" : 11,
            "componentType" : 5126,
            "count" : 216,
            "type" : "VEC2"
        },
        {
            "bufferView" : 12,
            "componentType" : 5123,
            "count" : 672,
            "type" : "SCALAR"
        },
        {
            "bufferView" : 13,
            "componentType" : 5126,
            "count" : 530,
            "max" : [
                0.60963374376297,
                0.16898079216480255,
                2.3734867572784424
            ],
            "min" : [
                -0.60963374376297,
                -0.16628527641296387,
                2.044421672821045
            ],
            "type" : "VEC3"
        },
        {
            "bufferView" : 14,
            "componentType" : 5126,
            "count" : 530,
            "type" : "VEC3"
        },
        {
            "bufferView" : 15,
            "componentType" : 5126,
            "count" : 530,
            "type" : "VEC2"
        },
        {
            "bufferView" : 16,
            "componentType" : 5123,
            "count" : 2160,
            "type" : "SCALAR"
        },
        {
            "bufferView" : 17,
            "componentType" : 5126,
            "count" : 606,
            "max" : [
                0.5857812166213989,
                0.23975765705108643,
                2.4422433376312256
            ],
            "min" : [
                -0.5857812166213989,
                -0.23743657767772675,
                1.9738755226135254
            ],
            "type" : "VEC3"
        },
        {
            "bufferView" : 18,
            "componentType" : 5126,
            "count" : 606,
            "type" : "VEC3"
        },
        {
            "bufferView" : 19,
            "componentType" : 5126,
            "count" : 606,
            "type" : "VEC2"
        },
        {
            "bufferView" : 20,
            "componentType" : 5123,
            "count" : 2880,
            "type" : "SCALAR"
        },
        {
            "bufferView" : 21,
            "componentType" : 5126,
            "count" : 754,
            "max" : [
                1.1533199548721313,
                0.828741192817688,
                2.7873520851135254
            ],
            "min" : [
                -1.1625897884368896,
                -0.8969139456748962,
                -1.4509027004241943
            ],
            "type" : "VEC3"
        },
        {
            "bufferView" : 22,
            "componentType" : 5126,
            "count" : 754,
            "type" : "VEC3"
        },
        {
            "bufferView" : 23,
            "componentType" : 5126,
            "count" : 754,
            "type" : "VEC2"
        },
        {
            "bufferView" : 24,
            "componentType" : 5123,
            "count" : 3312,
            "type" : "SCALAR"
        }
    ],
    "bufferViews" : [
        {
            "buffer" : 0,
            "byteLength" : 1308,
            "byteOffset" : 0
        },
        {
            "buffer" : 0,
            "byteLength" : 1308,
            "byteOffset" : 1308
        },
        {
            "buffer" : 0,
            "byteLength" : 872,
            "byteOffset" : 2616
        },
        {
            "buffer" : 0,
            "byteLength" : 1224,
            "byteOffset" : 3488
        },
        {
            "buffer" : 0,
            "byteLength" : 92381,
            "byteOffset" : 4712
        },
        {
            "buffer" : 0,
            "byteLength" : 2592,
            "byteOffset" : 97096
        },
        {
            "buffer" : 0,
            "byteLength" : 2592,
            "byteOffset" : 99688
        },
        {
            "buffer" : 0,
            "byteLength" : 1728,
            "byteOffset" : 102280
        },
        {
            "buffer" : 0,
            "byteLength" : 1344,
            "byteOffset" : 104008
        },
        {
            "buffer" : 0,
            "byteLength" : 2592,
            "byteOffset" : 105352
        },
        {
            "buffer" : 0,
            "byteLength" : 2592,
            "byteOffset" : 107944
        },
        {
            "buffer" : 0,
            "byteLength" : 1728,
            "byteOffset" : 110536
        },
        {
            "buffer" : 0,
            "byteLength" : 1344,
            "byteOffset" : 112264
        },
        {
            "buffer" : 0,
            "byteLength" : 6360,
            "byteOffset" : 113608
        },
        {
            "buffer" : 0,
            "byteLength" : 6360,
            "byteOffset" : 119968
        },
        {
            "buffer" : 0,
            "byteLength" : 4240,
            "byteOffset" : 126328
        },
        {
            "buffer" : 0,
            "byteLength" : 4320,
            "byteOffset" : 130568
        },
        {
            "buffer" : 0,
            "byteLength" : 7272,
            "byteOffset" : 134888
        },
        {
            "buffer" : 0,
            "byteLength" : 7272,
            "byteOffset" : 142160
        },
        {
            "buffer" : 0,
            "byteLength" : 4848,
            "byteOffset" : 149432
        },
        {
            "buffer" : 0,
            "byteLength" : 5760,
            "byteOffset" : 154280
        },
        {
            "buffer" : 0,
            "byteLength" : 9048,
            "byteOffset" : 160040
        },
        {
            "buffer" : 0,
            "byteLength" : 9048,
            "byteOffset" : 169088
        },
        {
            "buffer" : 0,
            "byteLength" : 6032,
            "byteOffset" : 178136
        },
        {
            "buffer" : 0,
            "byteLength" : 6624,
            "byteOffset" : 184168
        },
        {
            "buffer" : 0,
            "byteLength" : 205970,
            "byteOffset" : 190792
        }
    ],
    "samplers" : [
        {
            "magFilter" : 9729,
            "minFilter" : 9987
        }
    ],
    "buffers" : [
        {
            "byteLength" : 396764,
            "uri" : "data:application/octet-stream;base64,"
        }
    ]
}
